<svg width="231" height="219" viewBox="0 0 231 219" fill="none" xmlns="http://www.w3.org/2000/svg">
<path fill-rule="evenodd" clip-rule="evenodd" d="M115.884 157.741C139.607 151.759 153.989 127.678 148.007 103.955C142.025 80.2323 117.944 65.8502 94.2211 71.8322C70.498 77.8142 56.116 101.895 62.098 125.618C68.0799 149.341 92.1607 163.723 115.884 157.741ZM115.11 154.674C137.139 149.119 150.494 126.759 144.939 104.73C139.384 82.7016 117.024 69.3468 94.9951 74.9015C72.9665 80.4562 59.6117 102.817 65.1664 124.846C70.7211 146.874 93.0818 160.229 115.11 154.674Z" fill="#1BA49A"/>
<path fill-rule="evenodd" clip-rule="evenodd" d="M122.093 181.034C158.899 171.753 181.212 134.393 171.932 97.5868C162.651 60.7811 125.29 38.4678 88.4844 47.7487C51.6787 57.0296 29.3654 94.3901 38.6463 131.196C47.9272 168.002 85.2878 190.315 122.093 181.034ZM120.822 177.323C155.36 168.614 176.298 133.555 167.589 99.0172C158.88 64.4792 123.822 43.5406 89.2835 52.2497C54.7454 60.9588 33.8069 96.0175 42.5159 130.556C51.225 165.094 86.2837 186.032 120.822 177.323Z" fill="#1BA49A"/>
<path d="M90.6298 121.448C90.7589 121.306 90.9657 121.254 91.2504 121.292C91.4703 121.291 91.7548 121.275 92.104 121.242C92.6859 121.15 93.3555 121.242 94.1128 121.519C94.3522 121.596 94.7148 121.78 95.2004 122.07C95.6796 122.334 96.0099 122.553 96.1913 122.727C96.619 123.115 96.9695 123.741 97.2429 124.607C97.4509 125.105 97.5939 125.454 97.6719 125.654C97.7825 125.984 97.742 126.75 97.5504 127.954C97.3458 129.105 96.9013 129.96 96.2168 130.518C95.7262 130.971 95.4262 131.308 95.3167 131.528C95.2072 131.749 95.195 132.137 95.2802 132.693C95.3394 133.145 95.4014 133.446 95.4664 133.595C95.5572 133.737 95.7126 133.807 95.9325 133.807C96.1524 133.807 96.8893 133.621 98.1433 133.25L100.034 132.732L100.51 132.818C101.331 133.023 101.807 133.384 101.938 133.902C102.068 134.419 101.914 134.898 101.475 135.338C101.249 135.533 100.583 135.673 99.4775 135.759C98.7921 135.877 98.3493 135.975 98.149 136.053C97.9486 136.131 97.7127 136.177 97.4411 136.19C97.1371 136.185 96.8656 136.253 96.6265 136.396C96.2906 136.591 94.5745 137.092 91.4781 137.9L89.4613 138.409L89.0049 138.235C88.3902 138.088 88.0046 137.704 87.8481 137.083C87.8025 136.902 87.8441 136.685 87.9729 136.433L88.176 136.093L89.805 135.682C91.6926 135.206 92.7234 134.822 92.8974 134.531C92.9361 134.466 92.89 134.065 92.7591 133.328L92.5339 132.271L92.2522 132.136C92.0386 132.052 91.8801 132.024 91.7767 132.05C91.5181 132.115 90.7349 131.79 89.427 131.075C88.7147 130.649 88.2579 130.256 88.0567 129.894C87.9917 129.745 87.862 129.558 87.6675 129.332C87.473 129.106 87.2713 128.524 87.0624 127.587C86.8277 126.656 86.749 126.126 86.8264 125.996C86.852 125.88 86.8937 125.718 86.9515 125.511C87.2146 124.482 87.4364 123.835 87.617 123.569C88.0167 122.974 88.2942 122.656 88.4494 122.617C88.4752 122.611 88.5753 122.517 88.7495 122.335C88.9238 122.154 89.2533 121.988 89.7381 121.838C90.1646 121.676 90.4618 121.546 90.6298 121.448ZM92.9144 123.801C92.2869 123.712 91.647 123.901 90.9947 124.368C90.3359 124.809 89.8875 125.376 89.6496 126.068L89.4567 126.612L89.7012 127.582C89.8577 128.202 90.0429 128.609 90.2567 128.803C90.6778 129.164 91.2409 129.38 91.946 129.449C92.7611 129.519 93.2718 129.418 93.4783 129.146C93.5815 129.01 93.6589 128.935 93.7106 128.922C93.7624 128.909 93.8301 128.851 93.914 128.747C94.0172 128.611 94.1204 128.475 94.2236 128.339C94.3203 128.177 94.4203 128.028 94.5235 127.892C94.646 127.724 94.7072 127.584 94.7069 127.474C94.8099 127.228 94.8579 126.983 94.851 126.737C94.8181 126.498 94.8274 126.262 94.8786 126.029C94.9234 125.77 94.9002 125.514 94.8092 125.262C94.4841 124.409 93.8525 123.922 92.9144 123.801ZM99.564 121.052C99.9128 120.799 100.288 120.704 100.689 120.768C100.922 120.82 101.184 120.932 101.475 121.106C101.767 121.28 101.942 121.429 102 121.551C102.214 121.965 102.586 123.274 103.114 125.478C103.29 126.176 103.472 126.626 103.66 126.826C103.842 127 104.065 127.067 104.33 127.028C104.705 126.988 105.119 126.884 105.571 126.715C106.062 126.591 106.496 126.564 106.871 126.635C107.22 126.712 107.508 126.873 107.735 127.118C107.962 127.363 108.098 127.577 108.144 127.758C108.19 127.939 108.161 128.152 108.058 128.398C107.955 128.644 107.826 128.842 107.671 128.991C107.51 129.114 107.277 129.173 106.973 129.167C106.688 129.128 106.207 129.181 105.528 129.325C104.868 129.436 104.535 129.534 104.529 129.618C104.407 129.896 104.694 131.199 105.391 133.526L105.84 134.815L105.617 135.243C105.437 135.508 105.217 135.673 104.959 135.739C104.467 135.863 103.998 135.747 103.551 135.392C103.351 135.25 103.146 134.931 102.938 134.433C102.75 133.903 102.548 133.321 102.333 132.688C102.125 131.861 101.857 130.91 101.532 129.837C101.161 128.583 100.955 127.879 100.916 127.724C100.929 127.556 100.671 126.534 100.144 124.66C99.6161 122.785 99.3423 121.754 99.3225 121.567C99.3545 121.366 99.435 121.194 99.564 121.052ZM91.899 139.733C92.0733 139.552 92.3998 139.483 92.8784 139.527C93.4929 139.565 93.9267 139.758 94.1796 140.107C94.4519 140.423 94.7671 141.182 95.1253 142.385C95.4767 143.451 95.7204 144.036 95.8565 144.139L96.0507 144.255L97.0882 143.952C97.7215 143.738 98.4261 143.532 99.2018 143.337C99.8934 143.135 100.275 143.011 100.346 142.966C100.385 142.901 100.908 142.742 101.917 142.487C102.918 142.207 103.662 142.047 104.147 142.007C104.638 141.994 105.068 141.899 105.437 141.723C105.753 141.561 106.332 141.456 107.172 141.41C107.282 141.409 107.483 141.496 107.775 141.67C108.318 141.973 108.594 142.357 108.601 142.823C108.608 142.959 108.56 143.15 108.457 143.396C108.361 143.668 108.241 143.849 108.099 143.94C107.964 144.056 107.689 144.167 107.275 144.271C106.887 144.369 106.516 144.422 106.16 144.429C105.449 144.443 103.593 144.883 100.594 145.75C99.2818 146.108 98.1086 146.418 97.0743 146.678C95.8912 146.894 95.1087 146.954 94.7269 146.858C94.2738 146.697 93.9078 146.391 93.6288 145.938C93.4082 145.609 93.1512 144.863 92.8578 143.699C92.5388 142.652 92.3078 141.954 92.1648 141.605C91.7295 140.642 91.6409 140.018 91.899 139.733ZM112.107 118.095C113.652 117.678 114.447 117.45 114.492 117.411C114.531 117.347 115.222 117.145 116.567 116.806C117.911 116.467 118.784 116.329 119.185 116.393C120.311 116.384 120.9 116.868 120.954 117.845C120.948 118.149 121.072 118.805 121.327 119.813C121.653 121.216 121.884 122.079 122.021 122.402C122.287 122.803 122.255 123.223 121.926 123.663C121.791 123.89 121.584 124.052 121.306 124.15C119.943 124.631 118.278 125.12 116.313 125.615C114.697 126.078 113.818 126.354 113.676 126.445C113.56 126.529 113.521 126.759 113.561 127.134C113.738 128.272 113.998 128.977 114.341 129.248C114.588 129.46 115.112 129.521 115.913 129.429C117.161 129.252 118.419 128.893 119.685 128.354C119.963 128.256 120.525 128.087 121.372 127.846C122.2 127.637 122.785 127.558 123.128 127.61C123.535 127.699 123.846 127.896 124.06 128.199C124.274 128.503 124.32 128.849 124.198 129.237C124.14 129.334 124.079 129.419 124.014 129.49C123.976 129.555 123.911 129.626 123.821 129.704C123.724 129.756 123.523 129.834 123.22 129.938C123 130.048 122.868 130.178 122.823 130.327C122.778 130.475 122.794 130.705 122.873 131.015C122.97 131.403 123.071 131.694 123.175 131.888C123.298 132.049 123.425 132.389 123.556 132.906C123.926 134.05 124.209 134.68 124.403 134.796C124.701 134.996 125.157 134.949 125.771 134.657C126.65 134.216 127.409 134.12 128.05 134.371C128.29 134.448 128.471 134.513 128.594 134.564C128.717 134.616 128.804 134.69 128.856 134.787C128.908 134.884 128.96 135.035 129.012 135.242C129.091 135.553 129.072 135.805 128.956 135.999C128.756 136.407 128.411 136.728 127.92 136.962C127.454 137.189 126.97 137.284 126.465 137.246C126.09 137.176 125.24 137.349 123.915 137.765C122.693 138.156 121.507 138.524 120.356 138.869C119.277 139.169 118.563 139.335 118.213 139.368C117.573 139.337 117.053 139.454 116.652 139.72C116.478 139.792 115.977 139.877 115.149 139.976C113.862 140.108 113.05 139.996 112.713 139.641C112.461 139.402 112.331 139.27 112.324 139.244C112.098 138.999 112.103 138.695 112.342 138.332C112.523 138.067 112.729 137.904 112.962 137.846C113.22 137.781 113.476 137.757 113.728 137.776C113.967 137.744 114.349 137.675 114.872 137.57C115.448 137.453 115.742 137.31 115.754 137.142C115.786 136.941 115.617 136.104 115.245 134.63C114.847 133.053 114.616 132.245 114.551 132.206C114.402 132.051 114.062 131.958 113.532 131.927C113.098 131.844 112.691 131.644 112.308 131.328C111.952 131.005 111.725 130.65 111.627 130.262C111.542 129.926 111.435 129.664 111.305 129.477C111.195 129.257 111.133 129.012 111.12 128.74C111.132 128.462 111.001 127.945 110.728 127.188C110.5 126.393 110.383 125.818 110.376 125.462C110.317 125.12 110.307 124.916 110.345 124.851C110.377 124.761 110.458 124.644 110.587 124.501C110.839 124.19 111.204 124.057 111.682 124.101C112.252 124.178 113.325 124.017 114.902 123.62C115.42 123.489 116.163 123.274 117.132 122.975C118.095 122.649 118.625 122.406 118.722 122.244C118.819 122.082 118.775 121.529 118.592 120.585C118.403 119.725 118.273 119.263 118.202 119.199C118.15 119.102 117.426 119.229 116.029 119.581C112.849 120.383 111.026 120.733 110.56 120.631C110.398 120.644 110.24 120.615 110.084 120.544C109.922 120.448 109.773 120.348 109.637 120.244C109.527 120.135 109.446 120.031 109.394 119.934C109.232 119.508 109.296 119.162 109.586 118.896C109.741 118.747 110.581 118.48 112.107 118.095ZM119.885 131.109C119.755 130.921 119.58 130.828 119.36 130.828C119.166 130.822 118.704 130.953 117.974 131.219C117.489 131.369 117.231 131.544 117.199 131.745C117.205 131.881 117.349 132.449 117.629 133.451C118.189 135.235 118.608 136.188 118.886 136.311C118.97 136.317 119.297 136.248 119.866 136.105C120.435 135.961 120.79 135.844 120.932 135.754C121.094 135.63 121.161 135.462 121.135 135.249C121.108 134.705 120.857 133.71 120.382 132.262C120.2 131.648 120.034 131.264 119.885 131.109Z" fill="#EC4C40"/>
<path d="M81.6594 88.5936C81.7561 88.4317 81.9725 88.3084 82.3087 88.2236C82.7483 88.1128 83.2433 88.2217 83.7937 88.5504C84.0527 88.7051 84.3289 89.3643 84.6223 90.5278L84.9255 91.7302L85.2557 91.8945C85.4176 91.9912 85.6311 92.0198 85.8962 91.9805C86.1871 91.9346 86.4361 91.9406 86.6432 91.9984C86.8761 92.0496 87.0314 92.0655 87.109 92.0459C87.1348 92.0394 87.2773 92.1135 87.5363 92.2682C87.9637 92.5454 88.0906 92.9397 87.917 93.451C87.7954 94.0592 87.5669 94.6256 87.2317 95.1501C87.193 95.2149 87.0835 95.435 86.9032 95.8105C86.8004 96.1664 86.7848 96.4316 86.8563 96.6061C87.0186 96.9227 87.6825 97.3741 88.8478 97.9603C89.4046 98.2049 89.7931 98.437 90.0134 98.6564C90.2664 99.0052 90.3509 99.2313 90.267 99.335C90.2542 99.3932 90.2351 99.5356 90.2097 99.762C90.1976 100.15 89.9329 100.409 89.4158 100.54C89.1055 100.618 88.7529 100.583 88.3581 100.435C87.9633 100.287 87.332 99.9651 86.4643 99.4688C85.8168 99.0821 85.4349 98.9309 85.3187 99.0152C85.2217 99.0671 85.1765 99.106 85.1831 99.1319C85.009 99.4233 84.8093 99.7762 84.5837 100.191C84.2294 100.857 83.991 101.33 83.8687 101.608C83.7722 101.88 83.6467 102.146 83.492 102.405L83.2599 102.793L82.5618 102.969C82.0446 103.1 81.6436 103.091 81.3587 102.943C80.9185 102.724 80.6559 102.391 80.5709 101.945C80.4987 101.441 80.769 100.767 81.3817 99.9254C81.7752 99.4137 82.0105 99.0381 82.0876 98.7986C82.3195 98.3002 82.7061 97.5976 83.2475 96.6911C83.5891 96.0824 83.6628 95.775 83.4688 95.769C83.3265 95.7499 82.7349 95.8578 81.6941 96.0927L79.8226 96.5234L79.5022 96.3979C78.7771 96.0307 78.4107 95.5593 78.403 94.9837C78.3958 94.628 78.4988 94.3821 78.712 94.2458C78.9251 94.1096 79.4971 93.9241 80.428 93.6893C81.3782 93.4222 81.9114 93.2465 82.0277 93.1622C82.2539 93.0777 82.3667 92.9255 82.3663 92.7056C82.3593 92.4598 82.2254 91.8198 81.9646 90.7855L81.4756 88.8462L81.6594 88.5936ZM90.3812 88.6632C90.5424 88.43 90.7523 88.2808 91.0109 88.2156C91.5539 88.0787 92.1038 88.1875 92.6608 88.5421C92.8681 88.7099 93.0109 88.9489 93.0891 89.2592C93.1673 89.5695 93.2746 89.8312 93.4108 90.0443C93.4954 90.2705 93.6321 90.7036 93.8209 91.3435C94.0226 91.9252 94.1591 92.2483 94.2304 92.3128C94.2951 92.3515 94.5054 92.3672 94.8611 92.36C95.2102 92.327 95.5303 92.2875 95.8213 92.2417C96.1381 92.1893 96.3805 92.1144 96.5484 92.0171C96.6647 91.9327 96.9039 91.8999 97.2661 91.9186C97.5766 91.9503 97.8387 92.008 98.0523 92.0916C98.1559 92.1755 98.2629 92.2723 98.373 92.382C98.5091 92.4852 98.6354 92.6046 98.7521 92.7402C98.8688 92.8758 98.9402 92.9953 98.9663 93.0987C98.9989 93.228 98.9702 93.4415 98.8803 93.7392C98.8097 94.0045 98.7324 94.189 98.6486 94.2926C98.3515 94.5325 97.4464 94.7058 95.9332 94.8123C95.3383 94.8523 95.0183 94.9468 94.9733 95.0956C94.9477 95.2121 95.0555 95.7487 95.2968 96.7054C95.5769 97.7073 95.7786 98.289 95.9018 98.4504C96.1354 98.8315 96.217 99.2097 96.1466 99.585C96.1017 99.7338 95.9986 99.9249 95.8373 100.158C95.6696 100.365 95.5469 100.479 95.4694 100.498C95.4177 100.511 95.1945 100.499 94.7999 100.461C94.4312 100.416 94.1042 100.265 93.8191 100.007C93.6377 99.8326 93.5048 99.6874 93.4205 99.5711C93.3297 99.429 93.2354 99.219 93.1379 98.9411C93.0661 98.6567 92.9229 98.1978 92.7082 97.5644C92.5128 96.8986 92.4119 96.5528 92.4054 96.5269C92.3665 96.4817 92.0896 95.4928 91.5747 93.56C91.0275 91.6079 90.6953 90.4541 90.5781 90.0986C90.2987 89.4265 90.233 88.9481 90.3812 88.6632ZM84.0997 105.469C84.4808 105.236 85.1532 105.121 86.1169 105.125C86.4919 105.086 86.715 105.043 86.786 104.998C86.9281 104.907 89.4329 104.207 94.3004 102.897L95.8808 102.457L96.2886 102.602C96.5669 102.724 96.7352 102.792 96.7935 102.805C96.8 102.83 96.8907 102.918 97.0656 103.066L97.357 103.24L97.8852 105.334C98.4068 107.403 98.8135 108.634 99.1053 109.028C99.2155 109.138 99.3357 109.396 99.4659 109.804C99.5895 110.185 99.6257 110.492 99.5745 110.725C99.5684 110.919 99.4718 111.136 99.2847 111.376C99.1235 111.609 98.9815 111.755 98.8588 111.813C98.7167 111.904 98.1187 112.041 97.0648 112.224C96.0499 112.453 95.2322 112.7 94.6119 112.966C94.0043 113.175 93.6714 113.272 93.6132 113.259C93.555 113.247 92.6531 113.433 90.9076 113.818C89.2269 114.242 88.2442 114.435 87.9596 114.396C87.8238 114.403 87.5877 114.394 87.2513 114.369C87.0379 114.395 86.7888 114.334 86.5039 114.186C86.2449 114.031 86.0212 113.744 85.8328 113.324C85.3586 112.316 84.9552 111.152 84.6227 109.834C84.3163 108.618 84.0527 107.791 83.8319 107.352L83.5007 106.693L83.5678 106.305C83.6962 105.832 83.8735 105.554 84.0997 105.469ZM93.1425 105.994C92.7544 105.982 92.3698 106.093 91.9887 106.326C91.7432 106.443 90.9093 106.681 89.4872 107.04C88.8924 107.189 88.4399 107.304 88.1297 107.382C87.8194 107.46 87.5673 107.551 87.3735 107.655C87.199 107.727 87.0924 107.795 87.0538 107.859C87.041 107.918 87.0314 107.989 87.0251 108.073C87.0649 108.558 87.3255 109.482 87.8068 110.846C87.9694 111.272 88.0961 111.557 88.1869 111.699C88.2971 111.809 88.4298 111.844 88.5849 111.805C88.7983 111.778 89.4868 111.619 90.6503 111.325C91.8074 111.006 92.6864 110.729 93.2875 110.495C94.2118 110.235 94.8614 110.03 95.2362 109.88C95.6692 109.743 95.9148 109.626 95.9728 109.529C96.0567 109.426 95.9456 108.876 95.6396 107.881C95.3336 106.885 95.1674 106.281 95.1411 106.068C95.1214 105.88 95.0338 105.751 94.8784 105.68C94.7296 105.635 94.4774 105.671 94.1219 105.788C93.7406 105.912 93.4141 105.981 93.1425 105.994ZM111.869 87.3289C112.153 87.1472 112.518 87.1238 112.965 87.2587C113.483 87.4582 114.048 88.5533 114.66 90.5441C114.861 91.2357 115.017 91.6364 115.128 91.7461C115.231 91.83 115.5 91.8036 115.933 91.6669C116.359 91.5043 116.656 91.3744 116.824 91.277C117.05 91.0825 117.484 91.0558 118.124 91.1967C118.545 91.3382 118.827 91.4734 118.969 91.6025C119.105 91.7057 119.203 91.8737 119.261 92.1064C119.379 92.5718 119.214 92.957 118.769 93.2618C118.414 93.4889 117.903 93.7002 117.237 93.8955C116.287 94.1627 115.799 94.4644 115.774 94.8008C115.729 94.9496 115.804 95.3569 116 96.0227C116.214 96.6561 116.39 97.0793 116.526 97.2925C116.669 97.5315 116.848 98.0777 117.063 98.931L117.396 100.25L117.212 100.502C116.967 100.839 116.56 101.024 115.991 101.058C115.719 101.071 115.48 100.994 115.272 100.826L114.903 100.672L114.61 99.5083C114.369 98.7715 114.222 98.1897 114.17 97.763C114.117 97.3362 113.931 96.5443 113.612 95.3872C113.417 94.7215 113.071 93.406 112.576 91.4408C112.146 89.9542 111.876 89.156 111.765 89.0462C111.655 88.9365 111.564 88.7394 111.493 88.455C111.421 88.1706 111.44 87.9183 111.549 87.6982C111.672 87.5298 111.778 87.4067 111.869 87.3289ZM100.263 90.8741C100.47 90.712 101.433 90.4966 103.153 90.2279C103.864 90.1036 104.33 89.9862 104.549 89.8758C104.769 89.7654 105.005 89.7197 105.257 89.7386C105.503 89.7316 105.946 89.6337 106.586 89.4448C107.258 89.2753 107.779 89.2128 108.147 89.2573C108.891 89.3722 109.319 89.6495 109.43 90.089C109.501 90.3735 109.557 90.8681 109.597 91.573C109.631 92.252 109.626 92.721 109.581 92.9798C109.536 93.1286 109.53 93.3776 109.563 93.7268C109.564 94.0567 109.494 94.5968 109.353 95.3474C109.245 96.1172 109.129 96.6963 109.007 97.0846C108.879 97.4471 108.615 98.0911 108.216 99.0168C107.745 99.9879 107.498 100.532 107.472 100.648C107.253 101.198 106.969 101.545 106.62 101.688L106.232 101.786L105.611 101.447C105.216 101.19 104.992 100.957 104.94 100.75C104.901 100.595 104.926 100.424 105.017 100.236C105.1 100.022 105.381 99.498 105.857 98.6627C106.199 97.9441 106.424 97.4747 106.534 97.2546C106.604 96.9893 106.746 96.6236 106.958 96.1575C107.074 95.8532 107.164 95.3906 107.227 94.7696C107.291 94.1486 107.283 93.628 107.205 93.2077C107.171 92.7486 107.148 92.4382 107.135 92.2765C107.135 92.1666 107.079 92.0567 106.969 91.947C106.865 91.8631 106.626 91.841 106.251 91.8806C105.902 91.9136 104.903 92.0967 103.254 92.4299C101.897 92.7173 101.095 92.8094 100.849 92.7064C100.668 92.6421 100.457 92.5164 100.218 92.3294C99.9974 92.1099 99.8742 91.9485 99.8481 91.8451C99.822 91.7416 99.8637 91.5798 99.9732 91.3597C100.083 91.1396 100.179 90.9777 100.263 90.8741Z" fill="#EC4C40"/>
<path d="M59.1785 39.8613L58.874 49.5077L67.9541 52.7782L58.6858 55.4695L58.3813 65.1159L52.9576 57.1328L43.6892 59.8242L49.6056 52.199L44.1819 44.2159L53.2621 47.4864L59.1785 39.8613Z" fill="#FCDB74"/>
<path d="M27.0492 86.7199L30.7814 92.6575L37.5817 90.9427L33.0881 96.3271L36.8203 102.265L30.3109 99.6548L25.8172 105.039L26.2878 98.0418L19.7784 95.432L26.5786 93.7173L27.0492 86.7199Z" fill="#FCDB74"/>
<path d="M38.0744 61.4227L40.4498 68.5858L47.9963 68.5402L41.9178 73.0128L44.2931 80.1759L38.1611 75.777L32.0825 80.2496L34.3712 73.0584L28.2392 68.6595L35.7857 68.6139L38.0744 61.4227Z" fill="#FCDB74"/>
<path d="M99.1588 176.037C99.0673 176.045 98.6907 176.012 98.0289 175.937C97.385 175.865 96.9329 175.777 96.6727 175.676C96.4124 175.574 96.2496 175.492 96.1841 175.43C96.1682 175.41 96.1434 175.389 96.1096 175.368C96.0759 175.346 96.0342 175.314 95.9846 175.272C95.915 175.246 95.8723 175.223 95.8565 175.203C95.7035 175.113 95.4972 174.855 95.2375 174.427C94.9758 174.017 94.8054 173.681 94.7263 173.418C94.7263 173.418 94.7065 173.353 94.667 173.221C94.6076 173.106 94.5729 173.012 94.5631 172.938C94.4958 172.731 94.4814 172.458 94.5197 172.118C94.556 171.796 94.5464 171.559 94.491 171.408C94.3802 171.106 94.4145 170.802 94.5939 170.496C94.6836 170.343 94.7495 170.16 94.7916 169.948C94.8437 169.646 95.0172 169.312 95.312 168.947C95.3737 168.881 95.4365 168.807 95.5002 168.723C95.5083 168.652 95.5541 168.566 95.6378 168.467C95.7214 168.368 95.815 168.261 95.9186 168.146C96.0201 168.048 96.1226 167.942 96.2262 167.827C96.3277 167.73 96.4173 167.658 96.4949 167.613C96.8909 167.313 97.3285 167.127 97.8077 167.054C98.0841 167.013 98.2414 166.823 98.2797 166.483C98.3019 166.286 98.3479 166.119 98.4177 165.982C98.4537 165.823 98.512 165.467 98.5924 164.915C98.6967 164.311 98.7171 163.969 98.6537 163.889C98.5267 163.73 98.2346 163.67 97.7774 163.709C97.5924 163.742 97.3877 163.71 97.1633 163.613C96.6388 163.445 96.2184 163.397 95.9023 163.47C95.7511 163.526 95.4719 163.512 95.0645 163.43C94.6551 163.366 94.374 163.289 94.2211 163.199C94.0999 163.149 93.9996 163.075 93.9203 162.975C93.8389 162.894 93.7685 162.795 93.7091 162.68C93.6476 162.582 93.612 162.497 93.6021 162.423C93.5669 162.093 93.8168 161.804 94.3519 161.557C94.5031 161.501 94.7665 161.495 95.1421 161.537C95.5117 161.633 95.8186 161.722 96.063 161.804C96.3769 161.912 97.0427 161.951 98.0605 161.92C98.315 161.913 98.8983 161.961 99.8105 162.063C100.723 162.166 101.216 162.213 101.289 162.203C101.363 162.193 101.557 162.233 101.873 162.323C102.189 162.413 102.438 162.459 102.619 162.462C102.839 162.432 103.037 162.445 103.212 162.501C103.422 162.561 103.748 162.643 104.189 162.747C104.505 162.837 104.707 162.896 104.794 162.924C104.864 162.95 104.938 163.013 105.018 163.112C105.208 163.351 105.291 163.578 105.267 163.793C105.241 164.025 105.138 164.213 104.959 164.356C104.824 164.431 104.72 164.465 104.649 164.457C104.557 164.464 104.355 164.414 104.041 164.306C103.882 164.27 103.311 164.197 102.327 164.086L100.824 163.917L100.669 164.089C100.569 164.169 100.505 164.342 100.474 164.611C100.442 164.897 100.378 165.388 100.281 166.083C100.183 166.797 100.131 167.171 100.127 167.207C100.141 167.245 100.24 167.329 100.425 167.458C100.61 167.588 100.729 167.655 100.782 167.662C100.818 167.666 100.963 167.745 101.217 167.901C101.472 168.056 101.648 168.176 101.748 168.259C101.912 168.405 102.028 168.499 102.096 168.543C102.193 168.645 102.359 168.863 102.593 169.197C102.809 169.529 102.914 169.722 102.908 169.776C102.9 169.848 102.931 169.969 103.003 170.14C103.072 170.329 103.105 170.441 103.101 170.477C103.095 170.531 103.121 170.615 103.181 170.731C103.27 170.904 103.297 171.224 103.263 171.691C103.226 172.176 103.123 172.608 102.953 172.987C102.899 173.144 102.833 173.336 102.753 173.562C102.669 173.825 102.606 173.981 102.564 174.03C102.486 174.076 102.413 174.167 102.343 174.304C102.04 174.904 101.549 175.32 100.871 175.551C100.551 175.66 100.382 175.713 100.364 175.711C100.328 175.707 100.261 175.736 100.164 175.797C100.064 175.877 99.8964 175.921 99.6599 175.931C99.4213 175.958 99.2543 175.994 99.1588 176.037ZM97.2449 173.974C97.4157 174.066 97.6521 174.138 97.9542 174.19C98.2741 174.244 98.6111 174.228 98.9651 174.141C100.081 173.886 100.825 173.39 101.198 172.653C101.321 172.36 101.422 172.108 101.5 171.9C101.556 171.725 101.597 171.44 101.624 171.044C101.648 170.666 101.639 170.43 101.595 170.334C101.532 170.255 101.414 170.097 101.241 169.86C100.856 169.418 100.462 169.138 100.059 169.02C99.8639 168.98 99.7259 168.919 99.6445 168.837C99.4062 168.702 99.1727 168.685 98.9439 168.786C98.8663 168.831 98.746 168.854 98.583 168.854C98.4359 168.873 98.3036 168.922 98.1862 168.999C98.0509 169.074 97.9654 169.11 97.9296 169.106C97.876 169.1 97.6919 169.206 97.3775 169.424C96.8003 169.884 96.4815 170.383 96.421 170.919C96.3927 171.17 96.3506 171.382 96.2947 171.557C96.2388 171.732 96.2195 171.984 96.2368 172.312C96.2363 172.638 96.2796 172.896 96.3668 173.087C96.5073 173.447 96.8 173.743 97.2449 173.974Z" fill="#91CBC7"/>
<path d="M83.8728 173.833C83.7149 173.884 83.5612 173.878 83.4117 173.816C83.2456 173.747 83.1087 173.631 83.0009 173.469C82.7922 173.128 82.7469 172.816 82.8649 172.534C82.9482 172.335 82.9914 172.138 82.9944 171.944C83.0209 171.741 83.1175 171.44 83.2841 171.041C83.4674 170.649 83.5549 170.393 83.5467 170.273C83.522 170.145 83.4113 170.06 83.2147 170.017C82.4991 169.815 81.5815 169.49 80.4619 169.042C79.6508 168.742 79.2086 168.586 79.1353 168.575C78.9109 168.598 78.6473 168.459 78.3445 168.157C78.018 167.864 77.9042 167.553 78.0029 167.224C78.078 166.904 78.2901 166.7 78.6391 166.612C78.8469 166.581 79.0421 166.605 79.2247 166.681C79.4337 166.788 79.8551 166.993 80.4889 167.297C81.1891 167.629 81.6077 167.794 81.7448 167.793C81.875 167.808 82.1144 167.889 82.4631 168.035C82.679 168.125 83.2008 168.324 84.0284 168.631C84.7329 168.906 85.121 169.097 85.1929 169.205C85.298 169.327 85.3691 169.484 85.4063 169.675C85.5014 170.007 85.4117 170.409 85.1369 170.879C85.0204 171.065 84.8538 171.463 84.6371 172.075C84.4134 172.703 84.2952 173.103 84.2826 173.273C84.2588 173.516 84.1222 173.703 83.8728 173.833ZM78.427 165.089C78.3328 165.128 78.1723 165.022 77.9455 164.771C77.7782 164.564 77.676 164.365 77.6389 164.174C77.566 163.695 77.8018 163.364 78.3462 163.182C78.6079 163.116 78.9159 163.196 79.2701 163.422C79.5247 163.607 80.5758 164.056 82.4234 164.77C84.4703 165.567 85.8591 166.118 86.5898 166.424L87.9848 167.007L88.2462 167.292C88.4108 167.458 88.5234 167.632 88.5841 167.814C88.7249 168.224 88.6781 168.545 88.4438 168.779C88.2095 169.013 87.9236 169.02 87.586 168.801C87.3245 168.633 86.6741 168.322 85.6348 167.868C85.3525 167.75 84.3408 167.347 82.5998 166.658C79.9121 165.573 78.5212 165.05 78.427 165.089ZM82.9667 163.68C82.7868 163.644 82.4311 163.515 81.8997 163.292C81.3682 163.07 81.032 162.871 80.891 162.695C80.7569 162.503 80.6817 162.286 80.6654 162.045L80.5806 161.688L81.1013 160.442L81.6012 159.246L81.8299 159.049C82.0295 158.899 82.1528 158.814 82.1999 158.794C82.452 158.704 82.7358 158.726 83.0514 158.858C83.2506 158.941 83.5067 159.028 83.8195 159.12C84.1891 159.216 84.9918 159.513 86.2277 160.01L88.0815 160.756L88.2541 160.623C88.376 160.518 88.4607 160.339 88.5081 160.085C88.5736 159.742 88.5918 159.535 88.5628 159.464C88.5172 159.387 88.2204 159.233 87.6723 159.004C87.0911 158.761 86.6869 158.631 86.4599 158.614C86.273 158.595 86.0335 158.514 85.7416 158.373C85.3762 158.22 84.8579 158.013 84.1867 157.752C83.4988 157.484 83.1182 157.344 83.0449 157.333C82.9645 157.338 82.84 157.286 82.6712 157.177C82.4858 157.06 82.3488 156.945 82.2604 156.829C81.8527 156.171 81.9502 155.705 82.5528 155.43L82.7752 155.318L84.5687 156.068C85.9375 156.621 87.0571 157.069 87.9276 157.414C88.8244 157.788 89.4188 158.047 89.7108 158.188C89.9862 158.323 90.1909 158.487 90.325 158.679C90.488 158.942 90.559 159.216 90.5379 159.5C90.5349 159.694 90.3869 160.188 90.0938 160.982C89.7841 161.77 89.598 162.238 89.5355 162.388C89.4564 162.53 89.3628 162.637 89.2547 162.709C89.0455 162.836 88.8758 162.892 88.7457 162.877C88.6156 162.861 88.2371 162.693 87.6102 162.373C86.9169 162.025 86.3973 161.798 86.0512 161.692C84.1233 160.983 83.0941 160.739 82.9637 160.957C82.8013 161.299 82.7941 161.55 82.9421 161.709C83.1094 161.916 83.5661 162.106 84.3122 162.282C84.5848 162.376 85.2893 162.651 86.4255 163.107L88.1443 163.825L88.3559 164.089C88.6711 164.455 88.7746 164.791 88.6662 165.097C88.6204 165.253 88.4997 165.379 88.3044 165.472L87.9969 165.578L86.6019 164.995C84.6187 164.185 83.407 163.747 82.9667 163.68Z" fill="#91CBC7"/>
<path d="M65.5201 160.897C65.3715 160.824 65.2035 160.688 65.0161 160.49C64.8034 160.295 64.6707 160.13 64.618 159.995C64.4791 159.651 64.4805 159.363 64.6222 159.13C64.7386 158.901 64.9614 158.768 65.2904 158.733L65.5183 158.709L66.3712 159.329C66.9452 159.793 67.5809 160.295 68.2782 160.835C69.0035 161.398 69.4295 161.673 69.556 161.66C69.6573 161.649 70.0104 161.298 70.6154 160.606C71.2317 159.901 71.5991 159.504 71.7176 159.414C71.8081 159.302 71.8846 159.179 71.9471 159.044C71.9843 158.912 71.9863 158.81 71.9529 158.736C71.9082 158.677 71.4069 158.295 70.4489 157.591C68.9563 156.431 68.1176 155.764 67.9329 155.592C67.7343 155.408 67.5948 155.18 67.5146 154.907C67.4458 154.62 67.5019 154.364 67.6829 154.14C67.8526 153.93 68.1073 153.858 68.4472 153.925C68.787 153.991 69.0153 154.152 69.1321 154.409C69.2355 154.539 69.6875 154.939 70.4882 155.609C70.5582 155.665 70.6635 155.693 70.8041 155.691L70.9769 155.691L72.097 154.305L73.251 152.877L73.2219 152.784C73.1719 152.675 72.7605 152.296 71.9878 151.648C71.2318 151.037 70.6311 150.564 70.1858 150.227L69.5138 149.684L69.4266 149.405C69.3852 149.256 69.3847 149.07 69.4252 148.848L69.4729 148.575L69.7306 148.47C69.8998 148.376 70.1079 148.347 70.3551 148.385C70.563 148.414 70.8489 148.576 71.213 148.87C71.577 149.164 71.819 149.394 71.939 149.561C72.0591 149.727 72.3068 149.951 72.6821 150.231C73.3181 150.675 74.091 151.265 75.001 152C75.8857 152.739 76.4008 153.189 76.5461 153.353C76.7195 153.54 76.8818 153.682 77.0332 153.782C77.2351 153.875 77.3751 153.988 77.4532 154.121C77.5539 154.225 77.7595 154.415 78.0702 154.689C78.3556 154.966 78.5273 155.197 78.5855 155.383C78.6764 155.757 78.6243 156.051 78.4293 156.264C78.2343 156.476 78.0555 156.54 77.8929 156.455C77.7189 156.384 77.3576 156.115 76.8089 155.648C76.2268 155.109 75.7608 154.697 75.4108 154.414C74.9935 154.1 74.7342 153.949 74.633 153.959C74.5177 153.959 74.4288 154.026 74.3663 154.161C74.2106 154.382 73.8769 154.795 73.3651 155.4C72.8279 156.007 72.5071 156.361 72.4026 156.462C72.3207 156.534 72.2766 156.661 72.27 156.84L72.3532 157.081L72.8322 157.434C73.5801 157.969 73.9034 158.542 73.802 159.155C73.7615 159.376 73.6904 159.55 73.5886 159.676C73.5067 159.749 73.1659 160.156 72.5663 160.898C71.6418 161.957 70.9843 162.756 70.5937 163.296L70.0927 164.002L69.7889 164.035C69.6117 164.053 69.4531 164.006 69.3131 163.893C69.2517 163.797 68.9874 163.537 68.52 163.113C68.1786 162.791 67.6593 162.36 66.9619 161.82C66.2533 161.293 65.854 161.028 65.7641 161.025C65.7108 161.005 65.6294 160.963 65.5201 160.897Z" fill="#91CBC7"/>
<path d="M48.3866 142.833C48.2678 142.788 48.1609 142.658 48.0658 142.444C47.9415 142.165 47.9571 141.823 48.1124 141.419C48.1855 141.229 48.5921 140.969 49.3322 140.64L50.0971 140.3L50.1683 140.062C50.214 139.943 50.2085 139.798 50.1519 139.626C50.0879 139.438 50.0632 139.271 50.0778 139.127C50.0851 138.966 50.0778 138.861 50.0558 138.812C50.0485 138.795 50.0814 138.692 50.1545 138.502C50.2897 138.186 50.5374 138.056 50.8974 138.112C51.3159 138.123 51.7189 138.21 52.1064 138.373C52.1539 138.391 52.3129 138.439 52.5834 138.515C52.832 138.543 53.0102 138.523 53.118 138.455C53.3099 138.311 53.5337 137.817 53.7895 136.975C53.8882 136.576 53.9978 136.291 54.1184 136.119C54.3213 135.911 54.462 135.829 54.5406 135.872C54.5808 135.874 54.6777 135.871 54.8312 135.861C55.0907 135.825 55.2936 135.971 55.4398 136.3C55.5276 136.497 55.5449 136.736 55.492 137.016C55.439 137.295 55.2974 137.752 55.0671 138.386C54.8844 138.861 54.8278 139.133 54.8972 139.201C54.9429 139.259 54.974 139.285 54.9905 139.277C55.2043 139.359 55.462 139.452 55.7636 139.554C56.2479 139.713 56.5897 139.817 56.7889 139.867C56.9808 139.899 57.1718 139.952 57.3619 140.025L57.647 140.135L57.8444 140.579C57.9906 140.908 58.0309 141.176 57.9651 141.382C57.8701 141.7 57.6791 141.913 57.3922 142.021C57.065 142.127 56.5862 142.025 55.9556 141.714C55.57 141.511 55.2931 141.398 55.125 141.374C54.7667 141.278 54.255 141.101 53.5897 140.845C53.1456 140.688 52.9327 140.675 52.951 140.804C52.9546 140.901 53.0945 141.282 53.3705 141.948L53.8723 143.143L53.8257 143.37C53.6649 143.895 53.3935 144.193 53.0115 144.264C52.7758 144.31 52.6003 144.27 52.4852 144.144C52.37 144.017 52.1808 143.658 51.9176 143.066C51.6306 142.465 51.4524 142.13 51.383 142.063C51.3007 141.922 51.1865 141.865 51.0403 141.89C50.8776 141.923 50.4673 142.086 49.8094 142.378L48.5758 142.927L48.3866 142.833ZM47.4294 137.024C47.2558 136.944 47.1324 136.822 47.0593 136.657C46.9057 136.312 46.9148 135.933 47.0866 135.522C47.1743 135.365 47.3169 135.242 47.5142 135.155C47.7116 135.067 47.8734 134.966 47.9995 134.85C48.1402 134.768 48.4125 134.627 48.8164 134.428C49.18 134.227 49.3792 134.099 49.414 134.044C49.4322 133.997 49.4185 133.855 49.3728 133.619C49.3107 133.391 49.2476 133.183 49.1836 132.994C49.1123 132.79 49.0346 132.637 48.9505 132.537C48.8811 132.469 48.8317 132.314 48.8025 132.071C48.7878 131.86 48.796 131.679 48.8271 131.528C48.871 131.449 48.923 131.367 48.9833 131.281C49.0363 131.179 49.1012 131.081 49.178 130.988C49.2547 130.894 49.326 130.833 49.3918 130.804C49.474 130.767 49.6193 130.762 49.8277 130.787C50.0123 130.804 50.1438 130.834 50.2224 130.878C50.4162 131.048 50.6355 131.63 50.8805 132.624C50.9756 133.015 51.0752 133.217 51.1794 133.23C51.2598 133.234 51.6043 133.1 52.2129 132.83C52.847 132.528 53.2107 132.327 53.3039 132.226C53.5305 132.027 53.7727 131.929 54.0304 131.933C54.1346 131.946 54.2735 131.992 54.4471 132.073C54.6043 132.161 54.6938 132.229 54.7158 132.278C54.7304 132.311 54.7478 132.461 54.7679 132.728C54.7807 132.978 54.7177 133.213 54.5788 133.433C54.4838 133.573 54.4024 133.678 54.3348 133.748C54.2508 133.825 54.1219 133.911 53.9483 134.008C53.7674 134.089 53.4786 134.237 53.082 134.452C52.6617 134.659 52.4433 134.766 52.4269 134.773C52.4013 134.804 51.7753 135.102 50.549 135.667C49.3136 136.256 48.5844 136.609 48.3615 136.728C47.9466 136.991 47.6359 137.09 47.4294 137.024ZM59.3302 139.269C59.1309 139.042 58.9774 138.608 58.8695 137.967C58.8 137.722 58.7461 137.578 58.7077 137.536C58.6309 137.452 57.8769 135.867 56.4456 132.78L55.9713 131.779L56.0206 131.492C56.07 131.292 56.0955 131.173 56.0974 131.132C56.1138 131.125 56.1613 131.055 56.2399 130.921L56.3221 130.707L57.6544 130.115C58.9703 129.53 59.7424 129.118 59.9708 128.879C60.0311 128.793 60.1892 128.683 60.4451 128.55C60.6845 128.423 60.8846 128.364 61.0454 128.371C61.1752 128.353 61.3305 128.392 61.5115 128.489C61.6851 128.57 61.7984 128.647 61.8514 128.722C61.9282 128.806 62.0882 129.188 62.3313 129.868C62.6 130.517 62.8586 131.032 63.1072 131.414C63.3156 131.794 63.4189 132.004 63.4171 132.045C63.4152 132.085 63.6428 132.663 64.0998 133.78C64.5751 134.849 64.8164 135.481 64.8237 135.674C64.8438 135.764 64.8648 135.922 64.8868 136.148C64.9288 136.287 64.917 136.46 64.8512 136.667C64.7781 136.857 64.6127 137.039 64.355 137.212C63.7392 137.644 63.0118 138.046 62.173 138.419C61.3999 138.762 60.88 139.033 60.6131 139.23L60.2129 139.526L59.947 139.526C59.618 139.495 59.4124 139.409 59.3302 139.269ZM58.6388 133.194C58.6754 133.453 58.7933 133.696 58.9925 133.923C59.0985 134.073 59.3526 134.6 59.7548 135.505C59.9229 135.883 60.0509 136.171 60.1386 136.368C60.2264 136.566 60.316 136.723 60.4073 136.84C60.475 136.948 60.5325 137.011 60.5801 137.029C60.6203 137.031 60.6687 137.029 60.7254 137.023C61.0434 136.941 61.6282 136.661 62.4798 136.184C62.7448 136.027 62.9193 135.91 63.0034 135.833C63.0637 135.747 63.0719 135.655 63.0281 135.556C62.986 135.418 62.8005 134.978 62.4714 134.238C62.126 133.505 61.8408 132.952 61.616 132.579C61.3363 131.995 61.1252 131.586 60.9826 131.354C60.8419 131.082 60.7358 130.932 60.6646 130.904C60.586 130.861 60.2333 130.998 59.6064 131.316C58.9796 131.634 58.5967 131.814 58.4578 131.856C58.3353 131.891 58.2595 131.964 58.2303 132.075C58.2175 132.179 58.2705 132.343 58.3893 132.566C58.5154 132.805 58.5986 133.015 58.6388 133.194Z" fill="#91CBC7"/>
<path d="M42.2179 106.591C42.2062 106.5 42.2055 106.382 42.2156 106.239C42.2411 106.132 42.2564 106.043 42.2615 105.971C42.2665 105.9 42.3459 105.797 42.4997 105.663C42.6368 105.511 42.7617 105.402 42.8745 105.338C43.0052 105.275 43.1867 105.261 43.4188 105.295C44.5859 105.377 45.2528 105.388 45.4195 105.328C45.5118 105.298 45.5675 105.275 45.5868 105.258C45.5868 105.258 45.588 105.24 45.5906 105.204C45.5931 105.168 45.5969 105.115 45.6019 105.043C45.607 104.971 45.612 104.899 45.6171 104.827C45.6234 104.737 45.64 104.63 45.6668 104.506C45.6949 104.364 45.7121 104.247 45.7184 104.158C45.7882 103.423 45.8749 102.96 45.9786 102.769C46.2181 102.443 46.5257 102.302 46.9015 102.346C47.0977 102.378 47.2633 102.462 47.3981 102.598L47.5984 102.828L47.4804 104.119L47.3894 105.412L47.5222 105.449C47.6261 105.51 48.3982 105.564 49.8384 105.612C50.0898 105.629 50.2823 105.715 50.4158 105.869C50.5134 106.02 50.5559 106.185 50.5433 106.365C50.4657 106.955 50.0453 107.286 49.2824 107.359C48.9913 107.393 48.1442 107.378 46.7412 107.315C45.3214 107.233 44.4159 107.152 44.0247 107.07C43.7412 106.996 43.4981 106.988 43.2956 107.046C43.093 107.104 42.9468 107.129 42.8571 107.123C42.7852 107.118 42.7063 107.085 42.6203 107.025C42.5344 106.965 42.458 106.896 42.3912 106.82C42.3065 106.741 42.2487 106.665 42.2179 106.591ZM42.4073 111.206C42.2993 110.945 42.3041 110.621 42.4216 110.232C42.5213 109.842 42.6576 109.572 42.8306 109.422C42.9831 109.306 43.167 109.256 43.3825 109.271C43.58 109.285 43.8257 109.384 44.1196 109.567C44.3967 109.731 44.5706 109.824 44.6412 109.847C44.6733 109.903 44.742 109.953 44.8472 109.997C44.9344 110.039 45.0897 110.14 45.313 110.3C45.535 110.478 45.655 110.568 45.673 110.569C45.691 110.571 45.7596 110.621 45.879 110.719C46.119 110.898 46.4274 110.875 46.8042 110.649C47.067 110.505 47.4027 110.222 47.8113 109.8C48.3955 109.191 48.8087 108.832 49.051 108.723C49.1638 108.659 49.3235 108.697 49.5301 108.838C49.7559 108.962 49.9164 109.118 50.0115 109.305C50.1066 109.492 50.0875 109.635 49.9542 109.734C49.8761 109.819 49.7756 109.965 49.6527 110.173C49.3325 110.619 48.8656 111.101 48.2518 111.617C47.8866 111.934 47.7009 112.138 47.6946 112.227C47.6946 112.227 47.7363 112.275 47.8197 112.372C47.9032 112.468 48.0027 112.592 48.1183 112.744C48.2339 112.897 48.3668 113.06 48.517 113.233C48.6505 113.386 48.8014 113.55 48.9696 113.725C49.1198 113.898 49.27 114.071 49.4202 114.244C49.5717 114.399 49.6635 114.504 49.6956 114.561C49.729 114.599 49.7407 114.69 49.7305 114.834C49.7128 115.085 49.531 115.361 49.1851 115.662C49.0685 115.78 48.9185 115.859 48.7352 115.901C48.5351 115.923 48.3825 115.912 48.2773 115.868C48.1554 115.806 47.803 115.429 47.2201 114.738C46.6371 114.048 46.2699 113.625 46.1184 113.47C45.3918 112.769 44.897 112.364 44.634 112.256C44.5134 112.175 44.4275 112.241 44.3764 112.454C44.3471 112.614 44.3168 113.045 44.2854 113.747L44.2445 115.097L43.9255 115.4C43.7308 115.602 43.5225 115.741 43.3007 115.816C43.0789 115.89 42.9167 115.888 42.814 115.808C42.6228 115.705 42.5227 115.589 42.5136 115.463C42.4878 115.316 42.4841 114.856 42.5025 114.081C42.5478 113.182 42.5414 112.631 42.4835 112.429C42.4269 112.208 42.4068 111.981 42.4232 111.748C42.4396 111.515 42.4343 111.334 42.4073 111.206ZM51.2625 108.067C51.2772 107.346 51.2998 106.896 51.3304 106.718C51.3443 106.521 51.4025 106.335 51.5049 106.162C51.6099 105.953 51.7572 105.783 51.9468 105.652L52.2006 105.507L52.8182 105.578C53.2119 105.624 53.5506 105.683 53.8341 105.758C54.3664 105.885 54.7865 105.942 55.0942 105.927C55.5661 105.889 55.9183 106.013 56.1507 106.3C56.2842 106.453 56.3434 106.638 56.3283 106.853C56.3257 106.889 56.3104 106.978 56.2824 107.121C56.2543 107.263 56.232 107.451 56.2156 107.685C56.1992 107.918 56.1853 108.115 56.1739 108.277C56.1054 108.994 56.0694 109.506 56.0658 109.812C56.1007 110.085 56.0847 110.698 56.0177 111.649C55.9737 112.531 55.9761 113.009 56.0249 113.084C56.057 113.141 56.3437 113.17 56.8849 113.172C57.335 113.186 57.6422 113.18 57.8063 113.156C57.9538 113.112 58.0409 113.028 58.0677 112.904C58.115 112.744 58.1568 111.638 58.1932 109.583C58.2169 108.989 58.2547 108.324 58.3065 107.588C58.3293 107.265 58.359 106.843 58.3957 106.322C58.4273 105.873 58.5302 105.565 58.7044 105.397C59.131 104.976 59.5516 104.897 59.9661 105.161C60.1368 105.299 60.2236 105.477 60.2263 105.693C60.2471 105.911 60.1877 106.755 60.0481 108.225C59.9217 110.021 59.86 111.153 59.8631 111.622C59.8661 112.092 59.8307 112.595 59.7569 113.131C59.6831 113.667 59.5853 114.03 59.4637 114.22C59.3792 114.394 59.2595 114.557 59.1045 114.709C58.9507 114.842 58.8379 114.907 58.7661 114.901C58.7122 114.898 58.6289 114.928 58.5161 114.992C58.3854 115.055 58.1488 115.084 57.8064 115.078C57.4819 115.073 57.3004 115.087 57.262 115.12C57.2056 115.153 57.062 115.142 56.8311 115.09C56.6014 115.02 56.3405 115.01 56.0481 115.062C55.7725 115.133 55.482 115.157 55.1768 115.136C54.8895 115.116 54.6772 115.056 54.5398 114.956C54.423 114.821 54.3151 114.687 54.2163 114.554C54.1366 114.404 54.1305 114.106 54.198 113.66C54.3391 112.424 54.4001 110.66 54.3811 108.367C54.3859 108.043 54.3549 107.842 54.2882 107.765C54.2214 107.689 54.0271 107.63 53.7051 107.589C53.3844 107.53 53.1754 107.552 53.0781 107.653C52.982 107.737 52.9764 107.944 53.0614 108.275C53.0718 108.384 53.078 108.808 53.08 109.548C53.0396 110.123 53.0152 110.725 53.0068 111.356C53.0238 112.909 52.9671 113.844 52.8366 114.159C52.7663 114.389 52.5889 114.602 52.3044 114.798C52.0199 114.995 51.7801 115.068 51.5851 115.018C51.4799 114.975 51.3702 114.868 51.2559 114.698L51.0575 114.44L51.1576 112.634C51.2461 111.377 51.2765 110.431 51.2489 109.798C51.256 109.185 51.2605 108.608 51.2625 108.067Z" fill="#91CBC7"/>
<path d="M45.5801 92.4897C45.4816 92.3514 45.4281 92.222 45.4197 92.1016C45.4112 91.9811 45.4139 91.9043 45.4277 91.871C45.4484 91.8212 45.5181 91.7234 45.637 91.5779C45.8265 91.4032 45.9952 91.2783 46.1433 91.2033L46.3945 91.1614L47.1925 91.4926C47.7411 91.7203 48.0674 91.8265 48.1712 91.8111C48.2584 91.7888 48.3398 91.5692 48.4153 91.1524C48.4523 90.8754 48.5398 90.5706 48.6778 90.2381C48.8089 89.9223 48.925 89.7366 49.026 89.681C49.1339 89.6089 49.2452 89.5284 49.36 89.4396C49.519 89.2913 49.8063 89.3033 50.222 89.4758C50.4714 89.5793 50.6384 89.7168 50.7231 89.8884C50.9091 90.2385 50.8571 90.6456 50.567 91.1099C50.4205 91.3219 50.0264 92.201 49.3848 93.7471C48.7334 95.2698 48.3517 96.0955 48.2397 96.2245C48.0117 96.5391 47.7136 96.7174 47.3453 96.7595C46.8899 96.8238 46.6121 96.7183 46.512 96.4429C46.4496 96.3585 46.4391 96.2665 46.4805 96.1667C46.5288 96.0503 46.7013 95.6347 46.998 94.9198L47.4947 93.7228L47.4114 93.5713C47.3559 93.4703 47.0538 93.306 46.5052 93.0783C45.987 92.8242 45.6786 92.6281 45.5801 92.4897ZM49.63 87.9439C49.6212 87.5894 49.8104 87.2977 50.1978 87.0687C50.3666 86.9438 50.5576 86.9062 50.7709 86.9557C50.9745 86.9817 51.4323 87.123 52.1443 87.3796C52.9561 87.6775 53.4056 87.8153 53.4928 87.793C53.5565 87.7805 53.6243 87.7112 53.6961 87.5851C53.7679 87.459 53.8389 87.2643 53.9092 87.0011C53.9697 86.7144 53.9854 86.5358 53.9562 86.4652C53.9173 86.3711 53.2744 86.0653 52.0275 85.5479C51.6451 85.3892 51.413 85.2441 51.3311 85.1127C51.1771 84.8734 51.1837 84.6227 51.3508 84.3608C51.4876 84.1252 51.7969 83.9905 52.2787 83.9566L52.5548 83.925L55.6222 85.198C55.8217 85.2808 56.096 85.3947 56.4451 85.5396C58.1214 86.1963 59.094 86.5999 59.3628 86.7505C59.6386 86.8844 59.789 87.015 59.8141 87.1424C59.81 87.1991 59.808 87.2275 59.808 87.2275C59.8553 87.4421 59.7705 87.67 59.5535 87.9112C59.3364 88.1524 58.9787 88.2865 58.4803 88.3135C58.2463 88.3139 57.7968 88.176 57.1318 87.9001C56.4169 87.6034 55.9791 87.4607 55.8185 87.472C55.6482 87.4598 55.5176 87.6102 55.4266 87.9232C55.304 88.3596 55.2975 88.6102 55.4069 88.6751C55.4832 88.7262 55.9154 88.9056 56.7037 89.2133C57.3894 89.4394 57.8251 89.6105 58.0108 89.7265C58.2034 89.8259 58.3054 89.9559 58.3167 90.1165C58.3154 90.2135 58.2872 90.3284 58.232 90.4614C58.1451 90.7177 57.9135 90.9237 57.5371 91.0793C57.3087 91.1599 57.1627 91.2065 57.0991 91.219C57.0188 91.2247 56.8872 91.1896 56.7043 91.1137C56.4577 91.0503 56.0137 90.8758 55.3722 90.5901C53.2345 89.6834 51.7798 89.0797 51.0081 88.7789C50.4096 88.5305 50.0224 88.3601 49.8464 88.2676C49.6704 88.175 49.5983 88.0671 49.63 87.9439ZM49.4263 95.1968C49.3874 95.1027 49.3907 94.9774 49.4361 94.8208C49.4885 94.6477 49.5595 94.453 49.6492 94.2369C49.9723 93.5525 50.1912 93.1659 50.306 93.0771C50.4208 92.9883 50.4885 92.919 50.5092 92.8691C50.5368 92.8026 50.6315 92.7152 50.7934 92.607C50.9386 92.4919 51.0216 92.4094 51.0423 92.3595C51.0561 92.3262 51.1709 92.2375 51.3867 92.0932C51.6025 91.9489 51.801 91.8461 51.9823 91.7849C52.5635 91.5584 52.8624 91.4486 52.8791 91.4555C52.929 91.4762 53.0176 91.474 53.1449 91.4489C53.43 91.3724 53.8386 91.4445 54.3706 91.6653C54.9691 91.9137 55.4147 92.2253 55.7074 92.6001C55.8821 92.7895 55.9626 92.9009 55.9488 92.9341C55.9751 92.9645 56.0161 93.0303 56.0716 93.1313C56.4725 93.6679 56.6528 94.3371 56.6123 95.1389C56.5804 96.0611 56.1689 96.8647 55.3779 97.5499C55.3377 97.5527 55.299 97.5756 55.2617 97.6186C55.2244 97.6615 55.1905 97.6962 55.1601 97.7225C55.1199 97.7254 55.0777 97.7566 55.0335 97.8162C54.9962 97.8592 54.9505 97.8987 54.8966 97.9348C54.5786 98.2315 54.1192 98.4696 53.5185 98.6491C52.958 98.8257 52.3452 98.776 51.6802 98.5001C51.3311 98.3552 51.1107 98.2053 51.0191 98.0503C50.8971 97.9217 50.8112 97.8471 50.7613 97.8264C50.6948 97.7988 50.604 97.7123 50.4888 97.5671C50.3571 97.415 50.2365 97.3065 50.127 97.2416C50.0577 97.1738 50.0098 97.1247 49.9835 97.0943C49.964 97.0473 49.9099 96.9663 49.8211 96.8515C49.5382 96.5002 49.4136 96.049 49.4475 95.4979C49.4556 95.3844 49.4485 95.284 49.4263 95.1968ZM51.8126 93.6731C51.514 94.0169 51.3062 94.4471 51.1892 94.9638C51.0986 95.5108 51.3077 96.0166 51.8165 96.4811C52.0509 96.7148 52.2844 96.8799 52.5172 96.9765C52.7665 97.08 52.9902 97.1046 53.1881 97.0503C53.53 96.9778 53.8614 96.8133 54.1823 96.5567C54.3344 96.4249 54.4794 96.1928 54.6174 95.8603C54.7623 95.5112 54.8174 95.2612 54.7825 95.1103C54.6931 94.5275 54.5547 94.1095 54.3675 93.8564C54.226 93.6808 53.9557 93.5102 53.5567 93.3446L52.9333 93.0858L52.651 93.2025C52.2759 93.2612 51.9964 93.4181 51.8126 93.6731ZM59.8892 91.8216C59.7769 91.7165 59.6652 91.563 59.5542 91.361C59.4431 91.159 59.4201 91.0032 59.485 90.8937C59.5568 90.7676 59.7359 90.6179 60.0223 90.4444C60.5216 90.0864 60.8816 90.0409 61.1021 90.3078C61.3587 90.6287 61.6089 90.8008 61.8526 90.8239C61.973 90.8155 62.1979 90.7432 62.5273 90.607C62.8635 90.4542 63.069 90.3348 63.1436 90.2489C63.2722 90.1269 63.4424 90.0221 63.6541 89.9346C63.8658 89.847 64.0125 89.752 64.094 89.6494C64.2916 89.3611 64.6463 89.0699 65.1582 88.7756C65.3063 88.7006 65.4924 88.6512 65.7167 88.6273C65.941 88.6035 66.1196 88.6192 66.2526 88.6744C66.3524 88.7158 66.4432 88.8022 66.5251 88.9336C66.6069 89.065 66.657 89.2027 66.6752 89.3467C66.71 89.4976 66.7067 89.6229 66.6653 89.7226C66.5894 89.9055 66.3627 90.1232 65.985 90.3757C65.6046 90.5881 65.3673 90.7138 65.2732 90.7527C65.2192 90.7887 65.0491 90.8935 64.7627 91.067C64.4694 91.2571 64.2017 91.4091 63.9596 91.523C63.2221 91.938 62.848 92.1822 62.837 92.2556C62.8455 92.3761 63.1132 92.7406 63.6402 93.349C63.9467 93.6906 64.1534 93.9908 64.2604 94.2496C64.352 94.4045 64.4041 94.5138 64.4166 94.5775C64.4292 94.6412 64.4044 94.7478 64.3423 94.8974C64.2664 95.0803 64.1323 95.239 63.9401 95.3736C63.7616 95.475 63.5499 95.5625 63.3049 95.6362C63.0364 95.7197 62.8579 95.821 62.7695 95.9402C62.507 96.338 62.236 96.6153 61.9565 96.7721C61.9192 96.8151 61.8314 96.8858 61.693 96.9843C61.6018 97.0634 61.4648 97.182 61.2823 97.3401C61.1107 97.4248 60.9606 97.5281 60.832 97.6502C60.6799 97.7819 60.6199 97.9032 60.6519 98.0139C60.6741 98.1011 60.7893 98.2463 60.9973 98.4495C61.6391 98.9693 61.9976 99.4201 62.0729 99.8022C62.1649 100.191 61.9299 100.522 61.3682 100.796C61.1731 100.89 60.9675 100.893 60.7513 100.803C60.5587 100.704 60.3737 100.539 60.1961 100.31C60.0185 100.08 59.8702 99.9209 59.751 99.8325C59.6622 99.7177 59.5866 99.6181 59.5242 99.5337C59.3466 99.3041 59.0533 98.9777 58.6442 98.5546C58.5222 98.426 58.4529 98.3583 58.4363 98.3514C58.3864 98.3307 58.2956 98.2443 58.1638 98.0922C58.0321 97.94 57.9496 97.8571 57.9163 97.8433C57.8498 97.8157 57.7278 97.6871 57.5502 97.4575C57.363 97.2044 57.2665 97.0376 57.2608 96.9573C57.1802 96.729 57.2097 96.5171 57.3492 96.3217C57.4791 96.1027 57.6616 95.9446 57.8969 95.8474C58.1751 95.7874 58.4529 95.893 58.7302 96.164C59.0505 96.4723 59.313 96.591 59.5178 96.5201C59.6756 96.4686 59.9468 96.3083 60.3313 96.0392C60.4019 96.01 60.4911 95.9593 60.599 95.8872C60.6972 95.7915 60.7463 95.7437 60.7463 95.7437C60.9012 95.6521 60.9856 95.5896 60.9994 95.5564C61.0201 95.5065 61.1031 95.424 61.2483 95.3089C61.4004 95.1771 61.4903 95.078 61.5179 95.0115C61.5455 94.945 61.598 94.8888 61.6755 94.843C61.8539 94.7417 61.8828 94.5783 61.762 94.3528C61.5675 93.8823 61.4037 93.6194 61.2707 93.5642C61.2541 93.5573 61.2097 93.4999 61.1376 93.392C61.0723 93.2675 61.0016 93.1797 60.9254 93.1286C60.8491 93.0774 60.7916 93.0048 60.7527 92.9107C60.6027 92.6146 60.4286 92.3767 60.2304 92.197C60.1209 92.1321 60.0682 92.0712 60.0723 92.0145C60.0459 91.984 59.9849 91.9197 59.8892 91.8216Z" fill="#91CBC7"/>
<path d="M63.5975 70.1265C63.6885 69.9671 63.9024 69.8311 64.2391 69.7186C64.5014 69.6367 64.7503 69.6386 64.9859 69.7244C65.2994 69.8304 66.6693 70.916 69.0956 72.9812C70.453 74.1633 71.5998 75.0665 72.536 75.6908C72.8701 75.9102 73.0855 76.0739 73.1823 76.1821C73.2655 76.2784 73.3123 76.4027 73.3228 76.5551C73.4358 77.0831 73.1622 77.37 72.5019 77.4155C72.0702 77.4453 71.6448 77.2897 71.2258 76.9486C70.9171 76.7275 70.6346 76.5174 70.3785 76.3182C70.0444 76.0988 69.7144 75.8473 69.3887 75.5636C69.0103 75.258 68.7695 75.096 68.6662 75.0776C68.5593 75.0085 68.4236 74.8902 68.2589 74.723C68.0501 74.4695 67.8381 74.3565 67.6232 74.3841C67.5487 74.4148 67.3105 74.6609 66.9086 75.1224C66.5303 75.5568 66.2508 75.8504 66.07 76.0032C65.9483 76.0881 65.8723 76.1891 65.8421 76.306C65.8101 76.3975 65.8298 76.4982 65.9012 76.6081C65.9708 76.6926 66.0939 76.8117 66.2703 76.9654C66.4468 77.119 66.5896 77.3388 66.6986 77.6248C66.8059 77.8853 66.8663 78.0214 66.8799 78.0333C66.9071 78.0569 66.953 78.1685 67.0179 78.3682C67.0078 78.4072 67.0207 78.502 67.0566 78.6526C67.0908 78.7778 67.1087 78.8531 67.1105 78.8785C67.1788 79.129 67.2101 79.4904 67.2045 79.9629C67.1988 80.4353 67.1664 80.7055 67.1073 80.7733C67.0719 80.8141 67.023 80.9386 66.9609 81.1471C66.8987 81.3555 66.7199 81.6294 66.4243 81.9687C66.0461 82.4031 65.7293 82.712 65.474 82.8955C65.2052 83.0671 64.8457 83.2195 64.3956 83.3527C64.1452 83.421 64.0081 83.4687 63.9845 83.4959C63.9372 83.5502 63.6452 83.5703 63.1084 83.5564C62.5716 83.5424 62.2692 83.5058 62.2013 83.4467C62.1742 83.4231 62.0827 83.3911 61.9268 83.3509C61.4745 83.2673 61.1152 83.1453 60.849 82.9851C60.5946 82.8113 60.1823 82.4761 59.6122 81.9797C59.0811 81.4932 58.7559 81.1265 58.6368 80.8796C58.4787 80.6226 58.3513 80.44 58.2545 80.3319C58.0593 80.0902 57.9384 79.8179 57.892 79.5149C57.8714 79.4015 57.8593 79.3194 57.8558 79.2686C57.7844 79.1587 57.7382 78.9514 57.7172 78.6466C57.6826 78.33 57.6727 78.0947 57.6876 77.9406C57.7476 77.5154 57.8172 77.2299 57.8964 77.0841C57.9739 76.9129 58.1663 76.6508 58.4737 76.2979C58.8283 75.8907 59.0833 75.6115 59.2388 75.4605C59.6884 75.136 60.0385 74.9396 60.2889 74.8713C60.4159 74.8625 60.4912 74.8445 60.5148 74.8174C60.5503 74.7767 60.822 74.7388 61.3299 74.7037C61.8242 74.6568 62.1553 74.6468 62.323 74.6735C62.6702 74.7133 63.1378 74.8341 63.7259 75.0359C63.9614 75.1217 64.1232 75.1552 64.2112 75.1364C64.2975 75.0921 64.4606 74.9597 64.7005 74.739C64.834 74.6405 65.0935 74.4248 65.4787 74.092C65.6714 73.9256 65.8555 73.7279 66.0311 73.4989C66.1948 73.2835 66.2478 73.1267 66.19 73.0286C66.144 72.917 65.8716 72.6679 65.3729 72.2813C64.8742 71.8947 64.4636 71.5849 64.1414 71.352C63.8581 71.1291 63.6748 70.9696 63.5916 70.8732C63.5084 70.7769 63.4802 70.6449 63.5069 70.4772C63.52 70.2977 63.5502 70.1808 63.5975 70.1265ZM60.7218 76.4298C60.5848 76.4775 60.4385 76.5769 60.2831 76.728C59.8322 77.2184 59.6303 77.8065 59.6777 78.4921C59.6856 78.9764 59.8016 79.3639 60.0258 79.6546C60.1822 79.8862 60.3028 80.0629 60.3878 80.1846C60.5016 80.3554 60.83 80.6772 61.373 81.15C61.9396 81.5957 62.3271 81.8497 62.5355 81.9118C63.0067 82.0834 63.4605 82.0968 63.8971 81.9518C64.1085 81.8734 64.3461 81.7103 64.6096 81.4625C64.8732 81.2146 65.0319 81.0187 65.0858 80.8746C65.1698 80.6136 65.2164 80.2723 65.2256 79.8507C65.233 79.4036 65.1975 79.0744 65.1191 78.8629C65.0578 78.714 65.0092 78.5643 64.9733 78.4137C64.951 78.2749 64.8312 78.1109 64.614 77.9217C64.3832 77.7208 64.2109 77.5349 64.0971 77.3642C64.0086 77.1917 63.8127 77.033 63.5092 76.888C63.1533 76.7212 62.6626 76.5446 62.0374 76.3581C61.8561 76.3196 61.6258 76.31 61.3464 76.3293C61.0671 76.3485 60.8589 76.382 60.7218 76.4298Z" fill="#91CBC7"/>
<path d="M72.8873 61.1896C72.9106 61.0905 72.9834 61.003 73.1058 60.9271C73.234 60.8265 73.3229 60.782 73.3724 60.7936C73.4716 60.8169 73.7783 60.6797 74.2927 60.382C74.8107 60.1245 75.1852 59.9771 75.4163 59.9398C76.113 59.868 76.8448 60.092 77.6118 60.612C77.6898 60.6695 77.7583 60.7117 77.8174 60.7387C77.8516 60.7598 78.0011 60.8471 78.2657 61.0008C78.4903 61.1581 78.7448 61.4662 79.0293 61.9252C79.3138 62.3842 79.5293 62.6636 79.6758 62.7633C79.8319 62.8784 79.9314 63.039 79.9745 63.2453C79.9929 63.4457 80.0608 63.6577 80.1782 63.8814C80.2841 64.1546 80.3557 64.629 80.3933 65.3046C80.4366 65.9554 80.4139 66.4142 80.3252 66.681C80.2829 66.7495 80.2721 66.8516 80.2925 66.9871C80.3035 67.1073 80.3805 67.1973 80.5234 67.257C80.6356 67.3356 80.8183 67.4766 81.0713 67.6798C81.29 67.8618 81.4486 68.0494 81.5471 68.2425C81.6456 68.4356 81.7138 68.5627 81.7518 68.6239C81.7992 68.7004 82.0012 69.0093 82.3579 69.5506C82.7241 70.1072 82.9462 70.4143 83.0242 70.4718C83.1628 70.6612 83.389 70.6163 83.703 70.337C83.8713 70.2327 84.1744 70.0554 84.6122 69.8052C85.0596 69.5702 85.3882 69.4513 85.5981 69.4482C86.1666 69.4771 86.4644 69.6843 86.4916 70.0698C86.5114 70.3751 86.438 70.6324 86.2712 70.8417C86.0564 71.1443 85.5438 71.4619 84.7336 71.7947C84.4203 71.9042 83.8447 72.2398 83.0069 72.8014C81.1134 74.0174 80.0435 74.6487 79.7972 74.6955C79.6253 74.7597 79.4216 74.8754 79.1863 75.0424C78.951 75.2094 78.7721 75.3309 78.6497 75.4067C78.5274 75.4826 78.2559 75.6085 77.8355 75.7843C77.4056 75.9449 77.1229 76.0354 76.9874 76.0559C76.8613 76.0917 76.6743 76.0805 76.4265 76.0223C76.1845 75.9394 76.0245 75.8691 75.9465 75.8116C75.8116 75.6623 75.7991 75.4371 75.909 75.136L75.9985 74.9217L76.6553 74.5464C77.1084 74.2867 77.378 74.1408 77.464 74.1087C77.6148 74.0787 77.7945 74.0097 78.0028 73.9018C78.236 73.7996 78.3566 73.7037 78.3645 73.614C78.3667 73.5492 78.0851 73.0778 77.5198 72.1999C76.9144 71.3257 76.5774 70.8675 76.5089 70.8252C76.3719 70.7408 76.2818 70.5954 76.2387 70.3892C76.2014 70.1582 76.2279 69.9618 76.3181 69.7999C76.4026 69.6629 76.4153 69.5809 76.3563 69.5539C76.303 69.5022 76.1143 69.471 75.7899 69.4602C75.3818 69.4167 75.0319 69.3477 74.7403 69.2531C74.4641 69.149 74.0642 68.931 73.5407 68.5989L72.7698 68.1238L72.2435 67.2747C71.9079 66.6991 71.7186 66.3082 71.6755 66.102C71.6134 65.8652 71.5663 65.7038 71.5342 65.6178C71.4831 65.5012 71.4568 65.3905 71.4553 65.2855C71.4538 65.1806 71.4256 65.0498 71.3709 64.8931C71.3562 64.7328 71.3452 64.6125 71.3379 64.5324C71.3459 64.4427 71.3636 64.2835 71.3912 64.0546C71.4332 63.5415 71.6144 63.048 71.9348 62.5741C72.004 62.4465 72.0473 62.3456 72.0647 62.2712C72.1244 62.1283 72.3199 61.8801 72.6513 61.5264C72.7854 61.401 72.864 61.2887 72.8873 61.1896ZM75.7387 61.7412C75.5135 61.7537 75.2249 61.869 74.873 62.0871C74.527 62.2804 74.3051 62.4179 74.2075 62.4996C74.0524 62.6593 73.9104 62.8744 73.7815 63.1448C73.6432 63.4 73.5391 63.6763 73.4693 63.9736C73.39 64.2557 73.3432 64.5389 73.3288 64.8231C73.3116 65.3421 73.4365 65.8682 73.7035 66.4015C73.9705 66.9348 74.2801 67.3147 74.6323 67.5412C74.8036 67.6468 75.0132 67.7287 75.261 67.7868C75.5088 67.845 75.7501 67.8755 75.9847 67.8783C76.2099 67.8657 76.4038 67.8197 76.5662 67.7402C76.744 67.6512 76.8701 67.6154 76.9444 67.6328C77.1543 67.6298 77.315 67.5302 77.4264 67.3341C77.505 67.2219 77.6161 67.1107 77.7596 67.0005C77.9301 66.8314 78.0134 66.7267 78.0098 66.6866C78.0177 66.597 78.0552 66.5208 78.1222 66.4581C78.214 66.4012 78.2872 66.2288 78.3417 65.9409C78.5446 65.2433 78.5323 64.7109 78.3047 64.3438C78.2194 64.2061 78.1362 64.0035 78.0552 63.7361C77.9894 63.4592 77.911 63.2643 77.8198 63.1513C77.7571 63.0843 77.5966 62.8767 77.3384 62.5285C77.1561 62.3027 76.9869 62.1322 76.8309 62.0172C76.6902 61.8926 76.5331 61.81 76.3596 61.7693C76.2014 61.7191 75.9944 61.7097 75.7387 61.7412ZM78.2853 68.7712C78.0063 68.9018 77.8179 69.008 77.7203 69.0897C77.6227 69.1713 77.6118 69.2734 77.6877 69.3958C77.7314 69.4322 77.9079 69.6828 78.2172 70.1476C78.9823 71.177 79.5759 71.8785 79.9981 72.2521C80.0266 72.298 80.1056 72.3231 80.2354 72.3274C80.3899 72.3375 80.6471 72.1887 81.0069 71.881C81.2174 71.7081 81.3201 71.5492 81.3149 71.4042C81.3039 71.2839 81.1817 71.0526 80.9483 70.7102C80.7128 70.4326 80.4433 70.0491 80.1398 69.5595C79.6467 68.7639 79.3477 68.3669 79.2427 68.3684C79.1837 68.3415 79.07 68.3801 78.9017 68.4845C78.7334 68.5888 78.528 68.6844 78.2853 68.7712Z" fill="#91CBC7"/>
<path d="M85.4573 56.153C85.535 55.9927 85.6788 55.8856 85.8888 55.8317C86.1098 55.755 86.2662 55.7388 86.3578 55.7832C86.3748 55.7773 86.4291 55.7965 86.5208 55.8409C86.6294 55.8794 86.7037 55.9013 86.7436 55.9065C86.9897 56.0116 87.0938 56.1469 87.0561 56.3124C86.9968 56.5807 87.2594 57.5566 87.8439 59.24L88.6145 61.459L88.5224 61.6053C88.4669 61.7199 88.4598 61.8366 88.5011 61.9557C88.5602 62.1257 88.4877 62.2462 88.2836 62.317C88.1476 62.3643 88.0252 62.3686 87.9166 62.3301C87.8191 62.2687 87.7363 62.2498 87.6683 62.2734C87.5832 62.303 87.4491 62.2733 87.2658 62.1845C87.0079 62.0454 86.8343 61.8199 86.7451 61.5079C86.7392 61.4909 86.6443 61.1904 86.4606 60.6063C86.3175 60.0844 86.2485 59.8035 86.2537 59.7636C86.27 59.7008 86.2349 59.6272 86.1485 59.5429C86.0791 59.4527 86.0492 59.3392 86.0589 59.2024C86.0671 58.9519 85.8908 58.2795 85.5299 57.1853L85.3241 56.428L85.4573 56.153ZM88.2266 65.2807C88.3331 65.1484 88.5394 65.0292 88.8455 64.9229C89.1856 64.8048 89.4214 64.7706 89.5529 64.8202C89.7015 64.8638 89.7927 64.8798 89.8268 64.868C89.8778 64.8503 90.0407 64.908 90.3156 65.0412C90.5964 65.1914 90.8321 65.3763 91.0227 65.5959C91.3803 65.9672 91.5268 66.3069 91.4624 66.6151C91.4128 66.7467 91.4005 66.9034 91.4255 67.0852C91.4794 67.2952 91.4341 67.5491 91.2898 67.8469C91.1567 68.1218 91.0505 68.2825 90.9714 68.329C90.8923 68.3755 90.8279 68.4646 90.7783 68.5961C90.6954 68.7964 90.3616 68.9599 89.7768 69.0868C89.4819 69.1701 89.2801 69.1926 89.1714 69.1541C89.068 69.0757 88.9708 69.0427 88.8799 69.0552C88.789 69.0678 88.6519 69.0296 88.4686 68.9408L88.1682 68.8165L87.7785 67.6942L87.3799 66.5464L87.6042 66.0399C87.7766 65.7132 87.9053 65.5352 87.9903 65.5056C88.0753 65.4761 88.1541 65.4011 88.2266 65.2807ZM89.4878 66.4433C89.3444 66.3597 89.2228 66.421 89.1229 66.6272C89.0674 66.7417 89.0898 66.9435 89.1902 67.2326C89.3017 67.4988 89.3999 67.6171 89.4849 67.5876C89.5588 67.581 89.6376 67.506 89.7212 67.3626C89.7989 67.2023 89.8485 67.0707 89.87 66.968C89.8672 66.7403 89.7397 66.5654 89.4878 66.4433Z" fill="#91CBC7"/>
<path d="M115.382 55.0042C115.844 54.8371 116.2 55.0416 116.45 55.6178C116.53 55.7676 116.525 56.498 116.436 57.8089C116.365 59.1212 116.282 60.0807 116.187 60.6877C116.109 61.3138 116.039 62.0669 115.98 62.9468C115.916 63.8807 115.853 64.4176 115.789 64.5576C115.679 64.8569 115.471 64.9961 115.166 64.9754C114.896 64.9572 114.671 64.8156 114.491 64.5508L114.346 64.2974L114.477 62.3578C114.565 61.0648 114.583 60.3985 114.531 60.3589C114.481 60.3014 114.223 60.2568 113.756 60.2252L113.028 60.1759L112.965 60.3069C112.902 60.4469 112.845 61.291 112.794 62.8391L112.759 63.7568L112.609 63.9632C112.373 64.2539 112.138 64.3913 111.905 64.3755C111.653 64.3584 111.431 64.172 111.239 63.8162L111.067 63.5609L111.298 60.9516C111.531 57.7741 111.629 56.0668 111.591 55.8297C111.588 55.613 111.599 55.4423 111.626 55.3179C111.671 55.1766 111.787 55.0762 111.971 55.0165C112.139 54.9377 112.249 54.9001 112.303 54.9037C112.375 54.9086 112.507 54.9537 112.7 55.0389C112.91 55.1433 113.045 55.2787 113.106 55.4452C113.184 55.613 113.197 56.0919 113.143 56.8821C113.108 57.9441 113.113 58.5218 113.161 58.6153C113.197 58.6177 113.448 58.6437 113.914 58.6933L114.641 58.7427L114.758 58.6153C114.838 58.4944 114.894 58.0742 114.925 57.3547C114.972 56.6543 114.989 56.1412 114.975 55.8155C114.956 55.5617 114.996 55.3659 115.096 55.2284C115.213 55.092 115.309 55.0173 115.382 55.0042ZM104.715 54.6599C104.905 54.5284 105.133 54.6161 105.401 54.9229C105.602 55.153 105.729 55.4142 105.781 55.7064C105.835 55.9806 105.848 56.4506 105.821 57.1163C105.794 57.782 105.8 58.2154 105.841 58.4166C105.863 58.6166 105.845 59.0213 105.786 59.6307C105.689 60.2556 105.683 60.616 105.767 60.7119C105.85 60.8078 105.99 60.8803 106.185 60.9297C106.399 60.9622 107.018 61.0132 108.042 61.0826L109.768 61.1726L109.999 61.3506C110.274 61.5497 110.413 61.7666 110.415 62.0013C110.464 62.3473 110.266 62.5956 109.823 62.7459C109.639 62.8056 109.459 62.8024 109.283 62.7363C108.998 62.6809 107.994 62.5768 106.273 62.424C105.358 62.344 104.805 62.2524 104.614 62.1492C104.44 62.0472 104.315 61.8944 104.239 61.6908L104.094 61.4374L104.207 59.7672C104.245 58.6693 104.297 58.0413 104.362 57.8834C104.392 57.705 104.409 57.3183 104.413 56.7232C104.417 56.1281 104.408 55.7396 104.384 55.5576C104.326 55.3551 104.347 55.1672 104.449 54.9937C104.551 54.8202 104.64 54.7089 104.715 54.6599Z" fill="#91CBC7"/>
<path d="M133.234 56.5736C133.457 56.5439 133.679 56.6195 133.899 56.8004C134.277 57.1196 134.415 57.462 134.313 57.8278C134.249 57.9958 134.202 58.1418 134.174 58.2659C134.135 58.3667 133.846 59.1427 133.307 60.594C132.771 61.9884 132.486 62.8046 132.453 63.0423C132.409 63.2569 132.332 63.5069 132.222 63.7925C132.112 64.0781 131.993 64.2636 131.863 64.3489C131.651 64.4988 131.427 64.557 131.189 64.5234C130.871 64.4975 130.638 64.3018 130.489 63.936C130.389 63.7435 130.337 63.5787 130.332 63.4417C130.35 63.2944 130.427 63.0443 130.563 62.6915C130.697 62.2418 131.118 61.1213 131.826 59.3301C132.551 57.5454 132.929 56.6395 132.958 56.6124C132.982 56.602 133.073 56.5891 133.234 56.5736ZM126.406 54.4686C126.563 54.413 126.705 54.4679 126.835 54.6333C126.943 54.7522 127.132 54.8633 127.401 54.9667C127.686 55.0766 127.876 55.1593 127.971 55.2148C128.44 55.5495 128.719 55.8015 128.808 55.9708C128.893 56.1001 128.95 56.1795 128.977 56.2093C129.191 56.5039 129.393 56.9575 129.582 57.5701C129.697 57.9229 129.731 58.235 129.684 58.5063C129.615 58.7881 129.592 58.9722 129.616 59.0588C129.619 59.2527 129.518 59.59 129.314 60.0707C129.127 60.5579 128.947 60.8745 128.775 61.0206C128.663 61.1123 128.582 61.197 128.533 61.2745C128.464 61.4025 128.347 61.5311 128.182 61.6603C128.04 61.7792 127.881 61.8916 127.705 61.9976C127.529 62.1036 127.345 62.2063 127.153 62.3058C126.983 62.395 126.819 62.4474 126.658 62.4629C125.858 62.6374 125.029 62.5114 124.171 62.0849C123.232 61.5693 122.576 60.8928 122.204 60.0554C121.98 59.5837 121.854 59.1592 121.826 58.7818C121.823 58.5879 121.808 58.4277 121.779 58.3011C121.771 58.2209 121.792 58.0167 121.841 57.6885C121.907 57.3667 121.961 57.1754 122.004 57.1147C122.057 57.0772 122.184 56.8465 122.386 56.4226C122.587 55.9988 122.784 55.6886 122.975 55.4922C123.53 54.9532 124.195 54.6017 124.972 54.4376C125.328 54.3626 125.619 54.3587 125.844 54.4259C126.092 54.4828 126.28 54.497 126.406 54.4686ZM127.567 56.9401C127.507 56.8975 127.286 56.7934 126.906 56.628C126.543 56.4691 126.333 56.3883 126.276 56.3857C126.009 56.3793 125.652 56.4058 125.204 56.4652C124.844 56.5001 124.509 56.6701 124.198 56.9751C124.007 57.1715 123.827 57.4881 123.659 57.9249C123.515 58.3514 123.469 58.6713 123.522 58.8845C123.561 59.0344 123.632 59.2257 123.735 59.4583C123.862 59.6806 123.942 59.7982 123.976 59.8111C124.009 59.824 124.099 59.9164 124.245 60.0883C124.397 60.2434 124.626 60.3506 124.931 60.4101C125.28 60.5057 125.535 60.5457 125.695 60.5302C125.872 60.5212 126.088 60.4598 126.344 60.346C127.059 60.0423 127.47 59.6508 127.577 59.1713C127.612 59.0304 127.692 58.8973 127.818 58.772C127.986 58.5859 128.057 58.3242 128.033 57.9869C128.011 57.8434 127.956 57.6586 127.87 57.4325C127.783 57.2063 127.682 57.0422 127.567 56.9401ZM128.748 64.6262C129.985 64.8704 130.618 65.355 130.648 66.08L130.667 66.4057L130.156 67.5106C129.848 68.2602 129.665 68.7105 129.607 68.8617C129.522 69.2339 129.285 69.4995 128.896 69.6585C128.606 69.7593 128.231 69.6824 127.769 69.4278C127.513 69.2908 127.211 69.1745 126.862 69.0789C126.248 68.92 125.038 68.5317 123.231 67.914C122.429 67.6439 122.006 67.5392 121.964 67.6C121.927 67.6439 121.842 67.8907 121.708 68.3405C121.573 68.7902 121.505 69.0435 121.502 69.1004C121.518 69.2606 121.892 69.4913 122.625 69.7924C123.213 70.0185 123.609 70.1419 123.813 70.1626C123.977 70.1872 124.204 70.2744 124.493 70.4243C124.8 70.5806 125.03 70.6595 125.183 70.6608C125.465 70.7305 126.376 71.071 127.915 71.6823C128.402 71.8697 128.719 72.0493 128.865 72.2212C129.021 72.4163 129.119 72.6373 129.159 72.8841C129.196 73.0909 129.201 73.2279 129.175 73.2951C129.143 73.3791 129.039 73.4741 128.863 73.58C128.687 73.686 128.5 73.7203 128.303 73.6828C128.105 73.6453 127.665 73.4857 126.982 73.204C126.25 72.9029 125.519 72.6219 124.79 72.3608C123.067 71.7754 121.946 71.3826 121.425 71.1823C120.686 70.898 120.202 70.6253 119.975 70.3643C119.802 70.1627 119.701 69.9217 119.674 69.6413C119.659 69.481 119.644 69.3692 119.63 69.3059C119.599 69.2361 119.615 69.0688 119.678 68.8038C119.758 68.5454 119.792 68.356 119.781 68.2358C119.769 68.1157 119.818 67.9897 119.926 67.8578C120.067 67.642 120.147 67.3835 120.167 67.0824C120.198 66.9015 120.269 66.6398 120.382 66.2973C120.501 65.9381 120.648 65.7055 120.824 65.5995C121.059 65.4392 121.25 65.3681 121.397 65.3862C121.545 65.4043 121.94 65.5562 122.582 65.8417C123.247 66.117 123.965 66.3832 124.734 66.6404C125.519 66.904 126.001 67.0313 126.178 67.0222C126.348 67.03 126.667 67.1043 127.133 67.2451C127.61 67.4092 127.897 67.4906 127.994 67.4893C128.068 67.4984 128.151 67.4338 128.242 67.2955C128.577 66.8264 128.636 66.5214 128.421 66.3805C128.306 66.2784 127.466 66.0038 125.902 65.5567C125.272 65.3913 124.461 65.118 123.47 64.7368L122.024 64.2096L121.865 63.9459C121.592 63.5518 121.514 63.2035 121.63 62.9011C121.688 62.7499 121.819 62.6362 122.022 62.5599C122.311 62.4591 122.665 62.5179 123.082 62.7363C123.415 62.9224 124.151 63.2151 125.29 63.6144C126.435 63.9969 127.135 64.2081 127.389 64.2482C127.52 64.2598 127.694 64.3076 127.913 64.3916C128.165 64.4886 128.443 64.5667 128.748 64.6262Z" fill="#91CBC7"/>
<path d="M140.807 61.9915C141.164 62.0926 141.484 62.4411 141.768 63.037C141.903 63.3293 142.099 63.5893 142.355 63.8169C142.597 64.0333 142.826 64.1935 143.042 64.2975C143.273 64.4127 143.43 64.504 143.515 64.5714C143.574 64.6417 143.876 64.8834 144.421 65.2965L145.231 65.8402L145.366 66.1902C145.431 66.4263 145.456 66.5964 145.442 66.7004C145.431 66.8297 145.292 67.0757 145.025 67.4384C144.957 67.5228 144.78 67.773 144.494 68.1891C144.218 68.5912 144.009 68.8962 143.866 69.1043C142.629 70.8812 141.716 71.9371 141.126 72.2717C140.909 72.3983 140.677 72.4433 140.43 72.4068C140.183 72.3704 139.979 72.265 139.818 72.0907C139.588 71.8603 139.054 71.4331 138.216 70.8093C136.605 69.5672 135.827 68.6228 135.883 67.9762C135.9 67.667 136.337 66.9332 137.194 65.7748C137.329 65.6061 137.49 65.4472 137.679 65.2982C137.971 65.0479 138.748 64.0905 140.01 62.426C140.28 62.0886 140.545 61.9438 140.807 61.9915ZM142.819 67.2998C143.061 66.9399 143.169 66.7038 143.144 66.5913C143.13 66.4648 143.088 66.3735 143.017 66.3173C142.742 66.1431 142.545 66.0433 142.427 66.018C142.39 66.0349 142.113 65.848 141.596 65.4574C141.093 65.0781 140.802 64.8799 140.723 64.8631C140.658 64.8575 140.58 64.8983 140.487 64.9854C140.369 65.0754 139.952 65.5829 139.235 66.508C138.518 67.433 138.139 67.9363 138.097 68.0179C138.072 68.1359 138.083 68.2371 138.131 68.3214C138.179 68.4058 138.322 68.5435 138.561 68.7346C139.323 69.3669 139.828 69.7589 140.075 69.9106C140.334 70.0483 140.54 70.0637 140.695 69.9569C140.788 69.8697 141.098 69.4957 141.627 68.835C142.166 68.1602 142.564 67.6485 142.819 67.2998ZM147.521 67.6022C147.681 67.6612 147.797 67.7188 147.867 67.775C148.089 68.0448 148.195 68.3597 148.183 68.7195L148.137 68.9936L147.454 69.9341C147.019 70.5077 146.788 70.8535 146.763 70.9716C146.738 71.0896 146.911 71.2625 147.282 71.4901C147.498 71.594 147.647 71.7247 147.729 71.8821C147.822 72.0255 147.926 72.1547 148.041 72.27C148.156 72.3852 148.245 72.5482 148.307 72.759C148.38 72.9558 148.391 73.1146 148.341 73.2355C148.259 73.7697 147.963 73.982 147.451 73.8725C147.251 73.805 146.906 73.5746 146.414 73.1812C145.992 72.844 145.715 72.6571 145.583 72.6206C145.476 72.5813 145.365 72.6192 145.25 72.7345C145.171 72.8329 145.011 73.0621 144.769 73.422C144.527 73.7818 144.364 74.0433 144.28 74.2064C144.053 74.6928 143.798 74.9964 143.517 75.1174C143.399 75.2074 143.236 75.2383 143.028 75.2103C142.834 75.1935 142.695 75.1513 142.611 75.0839C142.358 74.8815 142.227 74.5695 142.218 74.1479C142.207 73.9314 142.243 73.7417 142.328 73.5786C142.426 73.4268 142.678 73.0978 143.082 72.5917C143.588 71.9591 143.892 71.5219 143.993 71.2801C144.108 71.0495 144.254 70.8668 144.431 70.7318C144.58 70.5743 144.709 70.4127 144.819 70.2468C144.926 70.0556 145.287 69.5607 145.902 68.7622C146.484 68.0059 146.817 67.6038 146.901 67.556C147.064 67.525 147.271 67.5404 147.521 67.6022ZM135.821 70.8647C136.195 71.0023 136.4 71.3509 136.437 71.9103C136.453 72.1773 136.323 72.4992 136.045 72.876C135.904 73.1094 135.816 73.2921 135.779 73.4242C135.754 73.5423 135.597 73.7968 135.307 74.1876C135.026 74.539 134.859 74.7626 134.805 74.8582C134.777 74.9509 134.78 75.0339 134.814 75.1069C134.918 75.2362 136.033 76.1046 138.158 77.712C139.013 78.3724 139.542 78.749 139.744 78.8417C139.972 78.9316 140.169 79.089 140.335 79.3138C140.619 79.6792 140.773 79.9757 140.799 80.2034C140.835 80.5323 140.734 80.7741 140.495 80.9288C140.27 81.0947 139.985 81.12 139.639 81.0049C139.507 80.9684 138.634 80.3164 137.02 79.049C134.526 77.124 133.21 76.0603 133.073 75.858C132.791 75.5179 132.707 75.2199 132.819 74.9641C132.845 74.846 132.86 74.7546 132.866 74.69C132.835 74.6422 132.857 74.5565 132.933 74.4328C132.995 74.2978 133.055 74.1502 133.114 73.99C133.185 73.8156 133.272 73.6779 133.376 73.5767C133.48 73.4754 133.586 73.3419 133.696 73.176C133.803 72.9848 134.011 72.6671 134.32 72.2229C134.618 71.7927 134.778 71.5059 134.8 71.3625C134.848 71.2163 134.906 71.1011 134.973 71.0167C135.041 70.9324 135.168 70.8733 135.357 70.8395C135.556 70.7917 135.711 70.8001 135.821 70.8647Z" fill="#91CBC7"/>
<path d="M156.627 83.3771C156.962 83.454 157.132 83.6871 157.135 84.0765C157.123 84.3462 157.025 84.5867 156.842 84.798C156.684 85.0141 156.283 85.3522 155.638 85.8122C155.246 86.1002 155.043 86.2817 155.028 86.3568C155.014 86.4318 155.204 86.7271 155.598 87.2429C155.821 87.5704 155.945 87.8664 155.973 88.1307C156.036 88.5445 156.001 88.8294 155.868 88.9854C155.755 89.1711 155.591 89.2824 155.377 89.3192C155.172 89.371 154.985 89.3352 154.814 89.2119C154.689 89.1231 154.532 88.8924 154.344 88.5196C153.928 87.7794 153.655 87.4099 153.525 87.411C153.46 87.4116 152.924 87.7433 151.916 88.4063C150.924 89.0591 150.378 89.4084 150.278 89.4542C150.179 89.5 150.046 89.5137 149.882 89.4952C149.717 89.4767 149.568 89.3706 149.437 89.1771C149.245 88.8942 149.219 88.5849 149.361 88.2491C149.435 88.0688 149.588 87.9101 149.821 87.7733C150.07 87.6263 150.306 87.5094 150.53 87.4225C150.754 87.3357 151.647 86.7611 153.21 85.6989C154.848 84.586 155.718 83.9293 155.822 83.7287C155.891 83.6382 155.992 83.5474 156.126 83.4564C156.26 83.3653 156.427 83.3389 156.627 83.3771ZM152.17 77.2982C152.265 77.3423 152.333 77.3941 152.374 77.4537C152.394 77.4834 152.409 77.5382 152.42 77.618C152.441 77.7127 152.457 77.7999 152.467 77.8797C152.478 77.9595 152.483 77.9994 152.483 77.9994C152.453 78.0196 152.419 78.0973 152.38 78.2324C152.342 78.3676 152.127 78.6116 151.735 78.9646C151.369 79.3223 150.648 79.8778 149.571 80.6312C149.511 80.6717 149.422 80.7324 149.303 80.8133C148.573 81.3091 148.152 81.6173 148.038 81.7382C147.939 81.8489 147.95 81.9936 148.072 82.1722C148.082 82.1871 148.097 82.2094 148.117 82.2392C148.74 83.1873 149.294 83.9862 149.779 84.6359C150.071 85.0027 150.228 85.2335 150.249 85.3282C150.28 85.4377 150.267 85.6101 150.209 85.8452C150.166 86.0703 150.117 86.223 150.063 86.3034C149.88 86.5147 149.606 86.5595 149.24 86.4379C149.03 86.3849 148.852 86.2342 148.705 85.9859C148.598 85.7971 148.491 85.5759 148.384 85.3222C148.247 85.0888 148.136 84.925 148.05 84.8309C147.905 84.7124 147.733 84.4593 147.534 84.0716C147.326 83.6691 147.129 83.3788 146.943 83.2007C146.746 83.0077 146.65 82.8987 146.655 82.8737C146.675 82.8386 146.606 82.6894 146.449 82.4262C146.332 82.1577 146.26 81.9561 146.234 81.8215C146.218 81.7018 146.261 81.5417 146.365 81.3411L146.466 81.0107L148.744 79.4628C150.248 78.441 151.084 77.8295 151.252 77.6284L151.533 77.2739L151.788 77.2641C151.962 77.2326 152.09 77.244 152.17 77.2982Z" fill="#91CBC7"/>
<path d="M165.35 95.2303C165.441 95.2766 165.508 95.3683 165.553 95.5053C165.62 95.6538 165.642 95.7508 165.618 95.7961C165.572 95.8868 165.632 96.2175 165.798 96.7881C165.924 97.3527 165.977 97.7517 165.958 97.9849C165.861 98.6785 165.469 99.3355 164.78 99.9557C164.706 100.018 164.648 100.074 164.608 100.125C164.579 100.153 164.459 100.277 164.246 100.498C164.04 100.678 163.68 100.851 163.166 101.018C162.652 101.184 162.329 101.326 162.197 101.445C162.048 101.569 161.868 101.627 161.658 101.619C161.459 101.589 161.237 101.604 160.991 101.665C160.701 101.702 160.223 101.658 159.558 101.533C158.916 101.419 158.476 101.288 158.238 101.138C158.182 101.08 158.085 101.045 157.949 101.033C157.829 101.014 157.723 101.068 157.631 101.192C157.528 101.282 157.348 101.426 157.09 101.623C156.861 101.792 156.64 101.901 156.429 101.95C156.218 102 156.079 102.035 156.01 102.058C155.925 102.085 155.576 102.208 154.965 102.424C154.337 102.647 153.986 102.789 153.911 102.851C153.694 102.94 153.684 103.17 153.88 103.542C153.941 103.73 154.04 104.067 154.179 104.552C154.3 105.043 154.336 105.39 154.289 105.595C154.125 106.14 153.853 106.379 153.472 106.314C153.171 106.26 152.938 106.127 152.775 105.915C152.533 105.634 152.347 105.06 152.218 104.194C152.186 103.863 151.998 103.224 151.654 102.276C150.926 100.147 150.569 98.957 150.583 98.7066C150.562 98.5243 150.498 98.2989 150.392 98.0304C150.286 97.762 150.211 97.5593 150.167 97.4223C150.123 97.2853 150.065 96.9916 149.995 96.5413C149.942 96.0855 149.922 95.7893 149.935 95.6528C149.93 95.5218 149.986 95.343 150.101 95.1163C150.24 94.9012 150.346 94.7626 150.421 94.7007C150.598 94.6054 150.82 94.6472 151.086 94.8259L151.272 94.9641L151.48 95.6917C151.623 96.1939 151.701 96.4905 151.711 96.5817C151.704 96.7353 151.728 96.9262 151.783 97.1544C151.826 97.4052 151.891 97.5452 151.976 97.5744C152.038 97.592 152.563 97.4315 153.551 97.0927C154.545 96.7142 155.07 96.4967 155.128 96.4403C155.243 96.3274 155.405 96.2747 155.616 96.2822C155.849 96.3013 156.033 96.3741 156.169 96.5005C156.282 96.6153 156.358 96.6472 156.399 96.5964C156.462 96.557 156.537 96.3812 156.625 96.0689C156.765 95.683 156.916 95.3599 157.077 95.0994C157.245 94.8561 157.552 94.52 158 94.0913L158.646 93.4564L159.596 93.1487C160.235 92.9606 160.66 92.8704 160.871 92.8779C161.115 92.8743 161.283 92.8672 161.375 92.8566C161.5 92.8349 161.614 92.8359 161.716 92.8595C161.818 92.8832 161.952 92.8872 162.117 92.8715C162.276 92.8956 162.396 92.9137 162.475 92.9258C162.561 92.955 162.711 93.0104 162.927 93.0919C163.415 93.2555 163.85 93.5495 164.234 93.9741C164.341 94.0718 164.429 94.138 164.497 94.1727C164.621 94.2649 164.816 94.5141 165.08 94.9206C165.169 95.0807 165.259 95.184 165.35 95.2303ZM164.132 97.8667C164.174 97.6451 164.131 97.3373 164.003 96.9435C163.899 96.5612 163.818 96.3129 163.762 96.1986C163.644 96.0097 163.469 95.8203 163.238 95.6305C163.023 95.4351 162.78 95.268 162.508 95.129C162.253 94.9845 161.989 94.8712 161.717 94.7892C161.217 94.6483 160.676 94.6437 160.094 94.7753C159.513 94.9069 159.07 95.1165 158.765 95.4042C158.622 95.5453 158.492 95.7292 158.377 95.9559C158.261 96.1826 158.173 96.4095 158.114 96.6367C158.073 96.8584 158.071 97.0576 158.109 97.2344C158.153 97.4283 158.158 97.5592 158.123 97.6272C158.076 97.8318 158.134 98.0116 158.298 98.1667C158.388 98.2699 158.469 98.4044 158.542 98.5701C158.665 98.7761 158.747 98.8821 158.787 98.8881C158.872 98.9173 158.937 98.9719 158.982 99.052C159.015 99.1548 159.165 99.267 159.431 99.3889C160.06 99.7529 160.58 99.8684 160.991 99.7353C161.145 99.6854 161.362 99.6531 161.641 99.6384C161.925 99.6408 162.133 99.6113 162.265 99.5498C162.345 99.505 162.585 99.3989 162.985 99.2316C163.248 99.1086 163.454 98.9851 163.603 98.8612C163.757 98.7544 163.875 98.6216 163.956 98.4629C164.043 98.3214 164.101 98.1226 164.132 97.8667ZM156.697 98.6567C156.637 98.3545 156.579 98.1462 156.523 98.0319C156.467 97.9176 156.37 97.8826 156.233 97.9269C156.188 97.9607 155.902 98.0721 155.377 98.2611C154.194 98.7576 153.371 99.166 152.907 99.4865C152.856 99.5031 152.812 99.5739 152.777 99.6988C152.73 99.8464 152.813 100.132 153.026 100.555C153.143 100.801 153.273 100.938 153.415 100.968C153.535 100.986 153.789 100.923 154.177 100.778C154.503 100.616 154.94 100.446 155.488 100.269C156.378 99.9803 156.835 99.785 156.859 99.6827C156.899 99.6318 156.889 99.5122 156.828 99.3238C156.767 99.1354 156.723 98.9131 156.697 98.6567Z" fill="#91CBC7"/>
<path d="M167.232 108.641C167.37 108.755 167.439 108.92 167.441 109.137C167.463 109.37 167.441 109.525 167.376 109.604C167.378 109.622 167.346 109.67 167.281 109.748C167.218 109.844 167.179 109.911 167.164 109.949C167.003 110.162 166.847 110.231 166.695 110.155C166.449 110.033 165.438 110.055 163.664 110.219L161.325 110.436L161.205 110.312C161.107 110.23 160.995 110.196 160.87 110.207C160.691 110.224 160.591 110.125 160.571 109.909C160.558 109.766 160.583 109.646 160.646 109.55C160.729 109.47 160.767 109.394 160.761 109.322C160.752 109.233 160.813 109.11 160.943 108.953C161.14 108.736 161.401 108.621 161.725 108.609C161.743 108.608 162.057 108.588 162.668 108.549C163.21 108.535 163.499 108.535 163.536 108.55C163.593 108.581 163.673 108.564 163.776 108.5C163.88 108.455 163.997 108.453 164.128 108.495C164.369 108.563 165.064 108.553 166.213 108.464L166.997 108.446L167.232 108.641ZM157.707 109.145C157.81 109.28 157.877 109.509 157.907 109.831C157.94 110.19 157.917 110.427 157.837 110.543C157.759 110.677 157.722 110.761 157.725 110.797C157.73 110.851 157.635 110.995 157.44 111.23C157.227 111.467 156.991 111.652 156.732 111.784C156.286 112.042 155.921 112.103 155.637 111.967C155.521 111.887 155.372 111.838 155.19 111.819C154.973 111.821 154.737 111.716 154.483 111.505C154.248 111.31 154.117 111.168 154.091 111.08C154.064 110.992 153.993 110.908 153.878 110.829C153.703 110.7 153.624 110.337 153.641 109.739C153.63 109.433 153.657 109.231 153.72 109.135C153.821 109.053 153.877 108.967 153.886 108.876C153.896 108.784 153.966 108.66 154.096 108.504L154.288 108.242L155.471 108.132L156.681 108.02L157.119 108.359C157.395 108.604 157.537 108.772 157.545 108.861C157.554 108.951 157.608 109.046 157.707 109.145ZM156.277 110.091C156.392 109.972 156.362 109.839 156.185 109.693C156.088 109.611 155.886 109.585 155.582 109.613C155.296 109.658 155.158 109.725 155.166 109.814C155.155 109.888 155.209 109.982 155.328 110.098C155.465 110.211 155.581 110.291 155.676 110.337C155.897 110.388 156.098 110.306 156.277 110.091Z" fill="#91CBC7"/>
<path d="M161.928 136.499C161.933 136.67 161.867 136.857 161.73 137.06C161.599 137.246 161.449 137.37 161.28 137.432C161.105 137.511 160.932 137.524 160.76 137.472C160.306 137.354 159.943 137.281 159.669 137.255C159.555 137.258 158.714 137.023 157.146 136.548C156.302 136.293 155.225 135.968 153.916 135.572C153.387 135.393 152.959 135.282 152.634 135.24C152.37 135.179 152.196 135.07 152.112 134.913C151.887 134.601 151.803 134.35 151.86 134.16C151.902 134.022 152.029 133.882 152.241 133.74C152.471 133.602 152.691 133.528 152.901 133.516C153.117 133.487 153.989 133.742 155.519 134.279C155.657 134.321 156.436 134.575 157.856 135.042C159.77 135.677 160.903 135.973 161.254 135.929C161.663 135.883 161.888 136.073 161.928 136.499ZM163.988 127.729C164.046 127.972 163.972 128.185 163.766 128.367C163.566 128.533 163.355 128.61 163.132 128.599C162.927 128.593 162.386 128.486 161.509 128.277C160.499 128.009 159.624 127.764 158.883 127.54L157.746 127.196L157.552 127.278L157.368 127.42L157.083 128.547C156.984 128.874 156.8 129.514 156.531 130.467C156.283 131.351 156.055 131.856 155.848 131.981C155.371 132.251 155.002 132.167 154.739 131.73C154.582 131.439 154.612 131.062 154.826 130.6C154.939 130.352 155.07 129.95 155.22 129.394C155.369 128.837 155.45 128.476 155.462 128.311C155.46 128.009 155.585 127.595 155.838 127.07C155.923 126.851 156.035 126.603 156.175 126.326C156.281 126.038 156.426 125.838 156.611 125.724C156.817 125.542 156.979 125.441 157.098 125.42C157.229 125.422 157.45 125.47 157.76 125.564C160.31 126.335 161.783 126.78 162.179 126.9C162.593 127.025 162.896 127.079 163.089 127.063C163.3 127.051 163.448 127.058 163.534 127.084C163.62 127.11 163.716 127.196 163.823 127.341C163.924 127.503 163.979 127.633 163.988 127.729Z" fill="#91CBC7"/>
<path d="M159.027 147.734C158.979 147.963 158.816 148.201 158.538 148.447C158.276 148.703 158.056 148.847 157.881 148.88C157.576 148.911 157.319 148.745 157.109 148.383C156.937 148.156 156.844 148.038 156.829 148.028C156.799 148.007 156.669 148.07 156.437 148.217C155.902 148.68 155.55 149.224 155.382 149.851C155.34 150.04 155.232 150.261 155.059 150.513C154.891 150.791 154.759 150.951 154.664 150.995C154.583 151.049 154.443 151.062 154.244 151.035C154.034 151.022 153.892 150.99 153.818 150.939C153.714 150.868 153.631 150.735 153.569 150.539C153.506 150.344 153.503 150.189 153.56 150.075C153.596 149.99 153.64 149.846 153.693 149.642C153.745 149.438 153.856 149.197 154.024 148.92C154.198 148.603 154.281 148.354 154.273 148.174L154.209 147.934L153.527 147.401C153.007 147.044 152.693 146.851 152.583 146.819C152.469 146.763 152.357 146.784 152.245 146.882C152.134 146.981 151.911 147.275 151.575 147.765L150.949 148.678L150.656 148.771C150.249 148.951 149.944 148.982 149.741 148.864C149.523 148.737 149.416 148.511 149.42 148.186C149.443 147.962 149.5 147.783 149.592 147.649C149.877 147.233 150.136 146.855 150.371 146.513C150.778 145.92 151.123 145.48 151.406 145.194L151.838 144.802C151.838 144.802 151.963 144.779 152.213 144.732C152.439 144.69 152.567 144.647 152.597 144.603C152.607 144.588 152.614 144.483 152.616 144.288C152.664 144.059 152.952 143.591 153.481 142.884C153.709 142.583 153.862 142.327 153.94 142.119C154.12 141.697 154.293 141.444 154.459 141.362C154.625 141.279 154.723 141.248 154.752 141.268C154.752 141.268 154.822 141.261 154.962 141.248C155.207 141.241 155.528 141.33 155.925 141.515C156.455 141.792 156.75 141.983 156.809 142.088C156.827 142.189 156.975 142.323 157.253 142.491C157.644 142.716 158.031 142.948 158.412 143.188C158.828 143.473 159.093 143.643 159.207 143.7C159.301 143.721 159.489 143.718 159.768 143.692C160.063 143.676 160.283 143.706 160.426 143.783C160.585 143.87 160.685 144.026 160.727 144.251C160.779 144.527 160.794 144.711 160.773 144.806C160.791 144.906 160.729 145.06 160.587 145.268C160.434 145.491 160.297 145.659 160.176 145.772C160.025 145.865 159.913 145.996 159.841 146.164C159.794 146.329 159.646 146.609 159.396 147.005C159.181 147.382 159.058 147.625 159.027 147.734ZM156.886 147.706C156.95 147.707 157.024 147.648 157.105 147.529C157.186 147.411 157.217 147.334 157.198 147.298C157.193 147.273 157.372 146.981 157.733 146.422C158.203 145.674 158.408 145.247 158.349 145.142C158.285 145.076 157.803 144.745 156.902 144.149C156.798 144.078 156.667 143.999 156.508 143.912C155.929 143.515 155.567 143.311 155.422 143.299C155.293 143.297 155.123 143.465 154.914 143.801C154.843 143.905 154.812 143.982 154.821 144.032C154.531 144.488 154.274 144.814 154.052 145.011C153.81 145.237 153.723 145.396 153.791 145.487C153.875 145.588 154.31 145.908 155.097 146.447C155.988 147.058 156.497 147.429 156.625 147.561C156.753 147.692 156.84 147.741 156.886 147.706ZM154.741 153.7C154.735 153.74 154.677 153.841 154.565 154.004C154.432 154.197 154.191 154.327 153.841 154.392C153.655 154.44 153.491 154.425 153.347 154.348C153.193 154.286 152.834 154.062 152.27 153.675C151.681 153.293 151.351 153.122 151.28 153.161C151.18 153.179 150.998 153.382 150.733 153.768C150.458 154.168 150.218 154.407 150.012 154.485C149.706 154.645 149.438 154.669 149.21 154.557C148.982 154.444 148.85 154.222 148.814 153.892C148.811 153.738 148.896 153.534 149.069 153.282C149.212 153.074 149.382 152.841 149.58 152.584L149.847 152.243L149.744 152.107C149.7 152.012 149.324 151.732 148.616 151.269L147.546 150.633L147.467 150.415C147.341 150.089 147.362 149.82 147.529 149.607C147.671 149.464 147.855 149.372 148.08 149.33C148.43 149.264 148.724 149.313 148.962 149.476C149.051 149.537 149.212 149.604 149.446 149.677C149.679 149.75 149.88 149.887 150.047 150.089C150.239 150.286 150.454 150.434 150.693 150.532C150.941 150.615 151.328 150.847 151.852 151.228C152.376 151.61 152.72 151.889 152.882 152.065C153.197 152.434 153.551 152.666 153.944 152.761C154.039 152.782 154.153 152.838 154.286 152.93C154.435 153.032 154.545 153.173 154.618 153.354C154.701 153.519 154.742 153.635 154.741 153.7ZM148.95 146.914C148.958 147.029 148.877 147.148 148.706 147.271C148.605 147.354 148.463 147.497 148.281 147.7C148.154 147.853 147.972 148.023 147.735 148.209C147.502 148.421 147.336 148.536 147.236 148.555C147.171 148.554 147.088 148.595 146.987 148.679C146.726 148.805 146.346 148.883 145.846 148.911C145.731 148.92 145.601 148.918 145.457 148.906C145.327 148.904 145.235 148.896 145.18 148.88C144.965 148.907 144.686 148.836 144.344 148.667C144.245 148.621 144.17 148.57 144.121 148.514C144.077 148.419 143.922 148.247 143.656 147.999C143.384 147.791 143.209 147.616 143.131 147.475C143.038 147.324 142.96 147.216 142.896 147.15C142.748 146.984 142.61 146.692 142.48 146.276C142.366 145.87 142.335 145.533 142.388 145.264C142.455 144.721 142.528 144.345 142.605 144.136C142.687 144.017 142.788 143.869 142.911 143.691C143.048 143.523 143.207 143.337 143.39 143.135C143.562 142.948 143.696 142.832 143.791 142.788C143.962 142.666 144.063 142.582 144.094 142.538C144.135 142.478 144.303 142.376 144.6 142.23C144.876 142.113 145.056 142.041 145.142 142.012C145.408 141.846 145.759 141.78 146.193 141.816C146.641 141.862 147.044 141.974 147.401 142.154C147.684 142.282 147.853 142.354 147.908 142.37C147.998 142.366 148.206 142.476 148.533 142.7C149.141 143.117 149.491 143.531 149.58 143.942C149.617 144.142 149.623 144.277 149.597 144.347C149.576 144.441 149.565 144.521 149.564 144.586C149.573 144.701 149.574 144.811 149.567 144.915C149.556 144.995 149.535 145.122 149.503 145.296C149.511 145.411 149.495 145.499 149.454 145.558C149.403 145.632 149.37 145.729 149.353 145.849C149.341 145.993 149.266 146.182 149.129 146.415C149.02 146.668 148.961 146.835 148.95 146.914ZM146.763 146.953C147.227 146.53 147.53 146.072 147.672 145.58C147.817 145.112 147.788 144.678 147.584 144.275C147.413 143.984 147.064 143.744 146.537 143.558C146.234 143.459 145.995 143.426 145.819 143.459C145.649 143.516 145.49 143.604 145.344 143.722C145.233 143.821 145.069 143.948 144.852 144.105C144.535 144.346 144.361 144.663 144.331 145.057C144.324 145.227 144.3 145.341 144.259 145.401C144.228 145.445 144.229 145.555 144.262 145.73C144.31 145.916 144.358 146.036 144.407 146.092C144.461 146.172 144.522 146.258 144.591 146.349C144.702 146.665 144.958 146.927 145.36 147.137C145.628 147.256 145.809 147.325 145.904 147.347C146.188 147.345 146.475 147.214 146.763 146.953Z" fill="#91CBC7"/>
<path d="M137.469 165.61C137.229 166.039 136.826 166.118 136.26 165.846C136.102 165.785 135.626 165.231 134.835 164.182C134.028 163.144 133.462 162.365 133.137 161.844C132.786 161.319 132.345 160.705 131.813 160.001C131.249 159.254 130.945 158.807 130.902 158.66C130.789 158.361 130.855 158.12 131.099 157.935C131.315 157.773 131.577 157.732 131.887 157.814L132.163 157.91L133.334 159.462C134.115 160.496 134.538 161.011 134.603 161.007C134.679 161.018 134.903 160.882 135.277 160.6L135.858 160.161L135.82 160.021C135.776 159.873 135.267 159.198 134.291 157.995L133.716 157.279L133.694 157.025C133.682 156.651 133.769 156.393 133.956 156.252C134.157 156.1 134.447 156.096 134.825 156.238L135.122 156.319L136.657 158.441C138.563 160.995 139.608 162.349 139.792 162.503C139.936 162.664 140.039 162.801 140.101 162.912C140.159 163.049 140.138 163.2 140.038 163.366C139.963 163.535 139.903 163.636 139.86 163.669C139.803 163.712 139.673 163.765 139.472 163.827C139.245 163.885 139.055 163.871 138.9 163.785C138.73 163.71 138.407 163.357 137.929 162.725C137.261 161.899 136.878 161.466 136.78 161.427C136.752 161.449 136.545 161.593 136.161 161.861L135.579 162.3L135.574 162.473C135.593 162.617 135.826 162.971 136.274 163.535C136.697 164.095 137.021 164.493 137.245 164.73C137.425 164.91 137.523 165.084 137.538 165.253C137.539 165.433 137.516 165.552 137.469 165.61ZM145.753 158.882C145.696 159.105 145.466 159.189 145.062 159.132C144.76 159.09 144.493 158.976 144.262 158.789C144.042 158.617 143.724 158.271 143.308 157.75C142.892 157.229 142.603 156.906 142.441 156.781C142.293 156.645 142.042 156.327 141.687 155.828C141.351 155.292 141.119 155.016 140.993 154.998C140.867 154.981 140.714 155.017 140.535 155.108C140.352 155.223 139.85 155.59 139.032 156.209L137.669 157.272L137.377 157.289C137.039 157.319 136.792 157.246 136.637 157.07C136.373 156.84 136.36 156.523 136.596 156.119C136.696 155.953 136.834 155.838 137.011 155.772C137.262 155.628 138.088 155.049 139.489 154.036C140.233 153.498 140.71 153.205 140.923 153.157C141.121 153.12 141.315 153.154 141.506 153.258L141.782 153.354L142.791 154.69C143.481 155.545 143.853 156.053 143.908 156.215C144.002 156.369 144.242 156.673 144.629 157.125C145.016 157.577 145.278 157.864 145.415 157.986C145.592 158.101 145.698 158.257 145.735 158.455C145.772 158.653 145.777 158.795 145.753 158.882Z" fill="#91CBC7"/>
<path d="M128.237 173.079C128.061 173.233 127.788 173.325 127.418 173.354C127.054 173.4 126.792 173.383 126.633 173.304C126.37 173.145 126.265 172.858 126.315 172.442C126.315 172.158 126.311 172.007 126.306 171.99C126.294 171.956 126.152 171.927 125.879 171.905C125.173 171.952 124.564 172.175 124.053 172.575C123.905 172.7 123.686 172.812 123.396 172.909C123.094 173.029 122.892 173.078 122.79 173.055C122.693 173.05 122.573 172.976 122.431 172.834C122.271 172.697 122.177 172.587 122.149 172.501C122.108 172.382 122.122 172.225 122.19 172.032C122.258 171.838 122.349 171.713 122.463 171.655C122.542 171.61 122.665 171.521 122.83 171.39C122.994 171.259 123.227 171.133 123.529 171.013C123.859 170.864 124.075 170.716 124.177 170.568L124.27 170.337L124.047 169.501C123.847 168.904 123.712 168.559 123.644 168.469C123.587 168.355 123.484 168.304 123.336 168.315C123.188 168.327 122.832 168.427 122.269 168.616L121.22 168.968L120.929 168.866C120.497 168.765 120.234 168.606 120.143 168.39C120.046 168.157 120.096 167.912 120.295 167.655C120.449 167.49 120.602 167.381 120.756 167.33C121.233 167.17 121.669 167.024 122.061 166.892C122.744 166.663 123.284 166.52 123.683 166.462L124.263 166.41C124.263 166.41 124.377 166.466 124.605 166.58C124.81 166.682 124.938 166.724 124.989 166.707C125.006 166.701 125.075 166.622 125.194 166.468C125.37 166.314 125.882 166.113 126.73 165.867C127.094 165.764 127.37 165.652 127.557 165.533C127.955 165.304 128.245 165.207 128.428 165.241C128.61 165.274 128.707 165.308 128.718 165.343C128.718 165.343 128.778 165.379 128.898 165.453C129.097 165.595 129.3 165.859 129.505 166.246C129.762 166.786 129.883 167.116 129.866 167.236C129.82 167.327 129.858 167.523 129.978 167.825C130.155 168.24 130.324 168.658 130.484 169.079C130.644 169.557 130.753 169.853 130.81 169.966C130.873 170.04 131.024 170.151 131.263 170.298C131.508 170.463 131.665 170.619 131.734 170.767C131.808 170.932 131.794 171.117 131.692 171.322C131.567 171.573 131.468 171.73 131.394 171.792C131.349 171.884 131.207 171.969 130.968 172.049C130.712 172.135 130.501 172.187 130.336 172.204C130.16 172.187 129.992 172.225 129.833 172.316C129.696 172.419 129.409 172.553 128.971 172.719C128.573 172.891 128.328 173.011 128.237 173.079ZM126.544 171.767C126.596 171.807 126.69 171.804 126.826 171.758C126.963 171.712 127.034 171.67 127.039 171.63C127.051 171.607 127.369 171.481 127.995 171.252C128.82 170.938 129.24 170.721 129.257 170.601C129.246 170.51 129.06 169.955 128.699 168.937C128.659 168.818 128.602 168.676 128.528 168.511C128.304 167.845 128.139 167.464 128.03 167.367C127.928 167.288 127.691 167.32 127.322 167.463C127.202 167.503 127.131 167.546 127.109 167.591C126.602 167.78 126.201 167.886 125.905 167.909C125.575 167.944 125.41 168.018 125.41 168.132C125.416 168.263 125.571 168.781 125.874 169.685C126.218 170.709 126.401 171.312 126.424 171.494C126.447 171.676 126.487 171.767 126.544 171.767ZM121.223 175.261C121.195 175.289 121.087 175.335 120.899 175.398C120.677 175.473 120.407 175.43 120.088 175.272C119.911 175.198 119.788 175.087 119.72 174.939C119.634 174.797 119.483 174.402 119.265 173.753C119.025 173.093 118.865 172.758 118.785 172.747C118.694 172.701 118.426 172.753 117.983 172.902C117.522 173.056 117.186 173.103 116.975 173.04C116.634 172.984 116.406 172.842 116.292 172.615C116.177 172.387 116.205 172.131 116.376 171.846C116.466 171.721 116.657 171.609 116.947 171.512C117.186 171.432 117.462 171.349 117.775 171.263L118.193 171.151L118.193 170.98C118.215 170.878 118.083 170.429 117.797 169.632L117.325 168.48L117.393 168.258C117.489 167.922 117.668 167.72 117.93 167.651C118.129 167.622 118.331 167.659 118.537 167.761C118.856 167.92 119.061 168.136 119.153 168.409C119.187 168.511 119.275 168.662 119.418 168.861C119.561 169.06 119.638 169.29 119.65 169.552C119.685 169.825 119.768 170.072 119.899 170.294C120.047 170.51 120.216 170.928 120.405 171.548C120.594 172.168 120.7 172.598 120.723 172.837C120.753 173.321 120.896 173.719 121.152 174.032C121.215 174.105 121.272 174.219 121.324 174.373C121.381 174.543 121.384 174.723 121.333 174.911C121.3 175.093 121.263 175.21 121.223 175.261ZM120.686 166.357C120.623 166.453 120.487 166.499 120.276 166.494C120.145 166.5 119.946 166.529 119.678 166.58C119.485 166.626 119.237 166.652 118.936 166.659C118.623 166.688 118.421 166.68 118.33 166.634C118.278 166.595 118.187 166.578 118.056 166.584C117.771 166.527 117.421 166.36 117.005 166.082C116.908 166.019 116.806 165.94 116.697 165.843C116.595 165.764 116.526 165.701 116.492 165.656C116.304 165.548 116.124 165.324 115.953 164.982C115.901 164.886 115.873 164.8 115.867 164.726C115.89 164.624 115.869 164.393 115.806 164.035C115.714 163.705 115.68 163.46 115.702 163.301C115.719 163.124 115.721 162.991 115.71 162.899C115.692 162.677 115.757 162.361 115.904 161.951C116.057 161.558 116.236 161.271 116.441 161.088C116.821 160.695 117.105 160.438 117.293 160.318C117.43 160.272 117.6 160.215 117.805 160.146C118.016 160.095 118.255 160.043 118.522 159.991C118.772 159.945 118.949 159.933 119.051 159.956C119.262 159.961 119.393 159.955 119.444 159.938C119.512 159.915 119.709 159.935 120.033 159.997C120.324 160.07 120.512 160.121 120.597 160.15C120.91 160.177 121.229 160.336 121.554 160.626C121.885 160.933 122.139 161.265 122.316 161.623C122.464 161.896 122.556 162.056 122.59 162.101C122.664 162.152 122.764 162.365 122.89 162.741C123.125 163.441 123.154 163.981 122.979 164.363C122.888 164.545 122.811 164.656 122.749 164.696C122.675 164.759 122.618 164.816 122.578 164.867C122.516 164.964 122.45 165.053 122.382 165.132C122.326 165.189 122.232 165.278 122.101 165.398C122.039 165.495 121.973 165.554 121.905 165.577C121.82 165.606 121.734 165.663 121.649 165.749C121.553 165.857 121.379 165.963 121.129 166.065C120.89 166.203 120.742 166.3 120.686 166.357ZM118.916 165.071C119.542 165.013 120.059 164.829 120.469 164.521C120.867 164.236 121.105 163.871 121.184 163.427C121.223 163.091 121.088 162.69 120.78 162.224C120.598 161.962 120.427 161.792 120.267 161.713C120.096 161.656 119.917 161.631 119.729 161.637C119.581 161.648 119.373 161.652 119.106 161.647C118.707 161.647 118.377 161.796 118.116 162.092C118.008 162.223 117.92 162.3 117.852 162.323C117.801 162.341 117.735 162.429 117.656 162.588C117.582 162.765 117.548 162.89 117.554 162.964C117.549 163.061 117.546 163.166 117.546 163.28C117.444 163.599 117.491 163.963 117.685 164.373C117.828 164.629 117.93 164.794 117.993 164.867C118.221 165.038 118.529 165.106 118.916 165.071Z" fill="#91CBC7"/>
<path d="M109.369 170.975C109.153 170.983 109.011 171.034 108.943 171.127C108.857 171.238 108.707 171.299 108.491 171.307C108.275 171.316 108.064 171.234 107.859 171.062C107.654 170.89 107.543 170.805 107.525 170.805C107.435 170.809 107.315 170.733 107.164 170.577C106.996 170.421 106.91 170.289 106.906 170.182C106.8 169.807 106.574 169.546 106.226 169.398C106.096 169.313 106.005 169.281 105.952 169.301C105.934 169.302 105.916 169.311 105.899 169.33C105.829 169.387 105.776 169.416 105.74 169.417C105.653 169.493 105.556 169.533 105.448 169.537C105.178 169.548 105.032 169.734 105.011 170.095C104.985 170.366 104.853 170.66 104.613 170.976C104.475 171.107 104.342 171.176 104.216 171.181C104.072 171.186 103.972 171.163 103.916 171.112C103.84 171.007 103.756 170.938 103.665 170.905C103.427 170.825 103.298 170.515 103.276 169.975C103.261 169.598 103.296 169.344 103.381 169.214C103.467 169.121 103.526 169.02 103.558 168.91C103.572 168.802 103.649 168.717 103.791 168.658C103.951 168.597 104.116 168.456 104.288 168.232C104.391 168.12 104.461 168.063 104.497 168.062C104.551 168.06 104.621 168.021 104.708 167.945C104.796 167.87 104.884 167.821 104.973 167.8C105.079 167.76 105.15 167.721 105.184 167.683C105.236 167.627 105.37 167.595 105.586 167.586C105.802 167.578 105.938 167.599 105.994 167.651C106.051 167.721 106.097 167.755 106.133 167.753C106.187 167.751 106.26 167.775 106.352 167.826C106.445 167.894 106.573 167.952 106.737 168C106.828 168.014 106.938 168.055 107.066 168.121C107.195 168.188 107.316 168.274 107.428 168.377C107.523 168.5 107.627 168.63 107.741 168.77C107.855 168.928 107.951 169.077 108.029 169.218C108.146 169.447 108.358 169.556 108.663 169.544C108.861 169.536 109.004 169.494 109.091 169.419C109.178 169.343 109.308 169.221 109.481 169.052C109.674 168.9 109.801 168.715 109.865 168.496C109.864 168.478 109.871 168.442 109.887 168.387C109.885 168.333 109.892 168.288 109.909 168.251C109.907 168.215 109.915 168.179 109.932 168.142C109.948 168.105 109.965 168.078 109.982 168.059C109.996 167.95 110.027 167.832 110.076 167.704C110.168 167.286 110.415 167.177 110.82 167.377C111.041 167.494 111.17 167.579 111.208 167.632C111.247 167.702 111.272 167.872 111.283 168.142C111.295 168.448 111.258 168.666 111.174 168.795C111.089 168.925 111.047 169.016 111.049 169.07C111.052 169.124 111.01 169.207 110.924 169.318C110.821 169.449 110.771 169.541 110.773 169.595C110.776 169.667 110.744 169.767 110.677 169.896C110.592 170.025 110.551 170.117 110.553 170.171C110.554 170.207 110.495 170.299 110.375 170.448C110.238 170.616 110.151 170.7 110.115 170.702C110.079 170.703 110 170.76 109.878 170.873C109.737 170.933 109.567 170.967 109.369 170.975Z" fill="#91CBC7"/>
<path d="M120.941 95.5483C135.86 74.3103 153.025 78.9752 160.815 82.3177C169.835 85.7592 192.309 84.2604 201.463 63.8914" stroke="#1BA49A" stroke-width="3"/>
<path d="M124.979 109.476C139.897 88.2376 157.062 92.9025 164.852 96.245C173.872 99.6864 196.346 98.1877 205.5 77.8186" stroke="#1BA49A" stroke-width="3"/>
<path d="M128.473 123.593C143.392 102.355 160.556 107.02 168.346 110.363C177.366 113.804 199.84 112.305 208.994 91.9363" stroke="#1BA49A" stroke-width="3"/>
</svg>
