<svg width="360" height="760" viewBox="0 0 360 760" fill="none" xmlns="http://www.w3.org/2000/svg">
<g clip-path="url(#clip0_187_3034)">
<g clip-path="url(#clip1_187_3034)">
<g filter="url(#filter0_d_187_3034)">
<path d="M193.344 599.081C187.623 576.798 197.987 553.507 218.371 542.84L227.646 537.986C232.018 535.698 236.105 532.903 239.823 529.658L298.788 478.184C306.065 471.832 315.008 467.695 324.561 466.261V466.261C365.297 460.149 395.883 502.662 377.14 539.342L371.544 550.295C367.853 557.518 365.748 565.446 365.37 573.549L360.887 669.672C360.657 674.615 361.19 679.564 362.466 684.345V684.345C372.484 721.852 336.29 755.194 299.729 742.137L243.477 722.047C224.825 715.386 204.359 715.925 186.084 723.557L126.511 748.437C117.542 752.183 107.513 752.515 98.317 749.372L92.9207 747.527C68.0688 739.033 60.3132 707.69 78.3362 688.587V688.587C82.6463 684.018 88.0737 680.653 94.0823 678.823L159.773 658.823C185.145 651.098 199.94 624.77 193.344 599.081V599.081Z" fill="#FE953A"/>
</g>
<g filter="url(#filter1_d_187_3034)">
<path d="M186.851 538.351C225.796 540.125 252.77 577.937 241.773 615.339L230.437 653.893C227.592 663.567 219.535 670.809 209.614 672.611L203.383 673.743C183.397 677.373 176.884 702.782 192.66 715.579V715.579C212.207 731.434 196.92 762.815 172.386 757.197L-29.4088 710.986C-35.9956 709.477 -42.3367 707.047 -48.2446 703.767L-63.986 695.027C-118.92 664.527 -128.676 589.578 -83.3808 546.031L-79.4806 542.281C-74.5664 537.556 -68.8977 533.686 -62.7084 530.828L-59.9537 529.556C-33.1393 517.177 -19.9546 486.587 -29.3677 458.593V458.593C-42.6781 419.009 -10.943 378.793 30.6513 382.536L75.1297 386.537C112.814 389.928 139.144 425.38 131.5 462.436L130.729 466.172C123.261 502.371 149.929 536.668 186.851 538.351V538.351Z" fill="#FFE3D8"/>
</g>
</g>
</g>
<defs>
<filter id="filter0_d_187_3034" x="64.4775" y="465.671" width="322.309" height="293.839" filterUnits="userSpaceOnUse" color-interpolation-filters="sRGB">
<feFlood flood-opacity="0" result="BackgroundImageFix"/>
<feColorMatrix in="SourceAlpha" type="matrix" values="0 0 0 0 0 0 0 0 0 0 0 0 0 0 0 0 0 0 127 0" result="hardAlpha"/>
<feOffset dy="4"/>
<feGaussianBlur stdDeviation="2"/>
<feComposite in2="hardAlpha" operator="out"/>
<feColorMatrix type="matrix" values="0 0 0 0 0 0 0 0 0 0 0 0 0 0 0 0 0 0 0.25 0"/>
<feBlend mode="normal" in2="BackgroundImageFix" result="effect1_dropShadow_187_3034"/>
<feBlend mode="normal" in="SourceGraphic" in2="effect1_dropShadow_187_3034" result="shape"/>
</filter>
<filter id="filter1_d_187_3034" x="-116.06" y="382.293" width="364.307" height="383.569" filterUnits="userSpaceOnUse" color-interpolation-filters="sRGB">
<feFlood flood-opacity="0" result="BackgroundImageFix"/>
<feColorMatrix in="SourceAlpha" type="matrix" values="0 0 0 0 0 0 0 0 0 0 0 0 0 0 0 0 0 0 127 0" result="hardAlpha"/>
<feOffset dy="4"/>
<feGaussianBlur stdDeviation="2"/>
<feComposite in2="hardAlpha" operator="out"/>
<feColorMatrix type="matrix" values="0 0 0 0 0 0 0 0 0 0 0 0 0 0 0 0 0 0 0.25 0"/>
<feBlend mode="normal" in2="BackgroundImageFix" result="effect1_dropShadow_187_3034"/>
<feBlend mode="normal" in="SourceGraphic" in2="effect1_dropShadow_187_3034" result="shape"/>
</filter>
<clipPath id="clip0_187_3034">
<rect width="360" height="760" rx="32" fill="white"/>
</clipPath>
<clipPath id="clip1_187_3034">
<rect width="360" height="723" fill="white" transform="translate(0 37.5)"/>
</clipPath>
</defs>
</svg>
